<svg width="35" height="35" viewBox="0 0 35 35" fill="none" xmlns="http://www.w3.org/2000/svg">
<path fill-rule="evenodd" clip-rule="evenodd" d="M6.26938 18.5456C5.68949 17.9774 5.69047 17.0476 6.25782 16.4807V16.4661L15.0014 7.72854C15.5697 7.14603 16.4878 7.14603 17.0707 7.72854C17.6391 8.29648 17.6391 9.21392 17.0707 9.79643L10.8045 16.0584H27.7095C28.511 16.0584 29.1667 16.6992 29.1667 17.5147C29.1667 18.3156 28.511 18.9709 27.7095 18.9709H10.8336L17.0836 25.2167C17.652 25.77 17.652 26.702 17.0836 27.27H17.069C16.7922 27.5321 16.4133 27.6923 16.0344 27.6923L16.0504 27.7083C15.657 27.7083 15.2781 27.5481 15.0158 27.286L6.27216 18.5484C6.27123 18.5475 6.2703 18.5466 6.26938 18.5456Z" fill="#131313"/>
</svg>
