<svg width="242" height="36" viewBox="0 0 242 36" fill="none" xmlns="http://www.w3.org/2000/svg">
<g style="mix-blend-mode:multiply" clip-path="url(#clip0_8_5208)">
<path d="M237.359 3.44295C236.696 2.83892 233.2 -0.0604062 228.197 -0.0604067C227.956 -0.0604067 227.715 -0.0604067 227.474 -0.0604067C225.726 0.0603985 221.145 0.302008 218.975 3.92617C217.227 6.8255 218.192 9.84563 218.312 10.208C218.312 10.3893 219.699 14.3154 223.677 15.1611C225.967 15.6443 227.896 14.7987 228.86 14.255C229.825 13.7114 230.608 12.9262 231.331 11.8993L232.477 10.208L230.608 11.0537C226.751 12.8658 223.194 12.2013 222.049 10.5101C221.627 9.90604 221.025 8.45637 221.507 6.9463C221.808 5.97986 222.471 5.37583 222.712 5.13422C224.099 3.86577 225.907 3.74496 226.992 3.68456C228.86 3.62416 232.416 3.86577 235.189 6.70469C235.671 7.18792 238.082 9.84563 238.203 13.4698C238.384 19.8725 231.452 24.3423 229.162 25.8523C221.266 30.9866 212.586 30.3221 207.403 29.8993C199.326 29.2953 193.299 26.698 188.356 24.5839C187.151 24.0403 185.945 23.4966 184.8 22.953C185.463 23.1342 186.126 23.255 186.789 23.3758C189.803 23.9195 197.759 25.3087 203.123 20.7785C203.666 20.3557 204.57 19.5705 205.293 18.302C207.764 14.3154 207.101 8.27516 203.786 4.5906C203.184 3.92617 201.436 2.23489 198.663 1.44966C193.841 0.0603957 191.249 1.38925 189.923 2.71811C188.296 4.34898 187.211 7.30872 188.597 9.78523C189.803 11.9597 192.334 13.047 194.926 12.6242L198.723 11.9597L194.866 11.5369C194.866 11.5369 192.636 11.2349 191.611 9.48321C191.611 9.48321 190.405 7.36912 191.43 5.67784C192.093 4.53019 193.419 4.22818 193.962 4.04697C196.493 3.38254 199.688 4.5906 201.496 6.8859C204.027 10.0872 203.545 14.6778 201.496 17.0336C199.929 18.7852 197.638 19.2684 195.348 19.6913C193.66 20.0537 191.973 20.1141 189.984 19.9329C184.86 19.5101 180.882 17.8792 178.29 16.6711L177.929 16.4899C175.518 15.4027 173.649 14.4966 171.6 13.4698C169.008 12.0805 167.622 11.2349 166.175 10.3893C165.211 9.78523 164.247 9.1812 162.86 8.39596C162.438 8.15435 161.956 7.85234 161.474 7.61073C157.375 5.19462 151.107 1.57046 143.512 1.02683C140.197 0.785222 137.666 1.02683 136.099 1.32885C133.627 1.75167 131.337 2.4765 129.529 3.44294C128.082 4.22817 126.696 4.95301 125.611 6.52347C125.189 7.1879 123.803 9.18119 124.345 11.5973C124.767 13.5302 126.153 14.7382 126.937 15.2819C128.444 16.3087 130.312 16.6711 132.241 16.2483C134.471 15.7651 136.46 14.3758 137.666 12.3221L138.931 10.208L136.882 11.5973C133.447 13.8926 129.77 13.7114 128.564 12.1409C127.901 11.2953 127.781 9.90602 128.203 8.75837C128.625 7.67113 129.589 6.88589 131.518 6.04025C134.893 4.59059 138.931 4.10737 142.91 4.53019C147.068 5.01341 149.901 6.16106 153.518 7.61073C153.578 7.61073 160.208 10.3288 167.863 16.2483C168.586 16.7919 169.912 17.8188 170.877 19.5705C172.384 22.1678 172.263 24.7047 172.203 25.6711L172.203 25.7919C172.082 28.3288 170.937 30.1409 168.586 31.2886C168.225 31.4698 167.381 31.8926 166.236 32.0738C163.342 32.557 159.545 31.4698 158.762 29.2953C158.641 28.9329 158.4 28.0268 158.762 27.2416C158.942 26.9396 159.244 26.5772 159.847 26.2752C161.112 25.7315 162.981 26.4564 164.668 28.0872L165.512 28.8725L165.633 27.7248C165.693 27.0604 165.633 26.396 165.392 25.7919C164.91 24.4027 163.825 23.6778 163.463 23.4362C161.715 22.2886 159.847 22.5906 159.364 22.7114C159.003 22.7718 157.194 23.255 156.11 24.9463C154.603 27.1812 155.205 30.3825 156.531 32.3154C157.797 34.1879 160.268 35.4564 163.222 35.7584C166.658 36.1208 170.093 35.094 172.203 33.1007C173.468 31.8926 175.036 29.6577 175.518 25.4295C175.638 24.4027 175.638 23.4362 175.518 22.4094C178.29 24.2215 181.244 25.8523 184.197 27.3624C188.899 29.6577 196.734 33.5235 207.162 34.2483C210.718 34.4899 221.447 35.2752 231.452 29.4161C235.31 27.1812 238.082 24.5235 239.71 21.5638C240.493 20.1141 242.422 16.6711 241.819 12.0805C241.638 10.5101 240.794 6.52349 237.299 3.44295L237.359 3.44295Z" fill="#C68944"/>
<path d="M112.532 3.68456C110.723 2.71811 108.433 1.99328 105.962 1.57046C104.395 1.26845 101.803 1.02684 98.548 1.26845C90.9534 1.81207 84.6849 5.49664 80.5863 7.85234C80.1041 8.15435 79.6219 8.39596 79.2 8.63757C77.8137 9.42281 76.8493 10.0268 75.8849 10.6309C74.4384 11.5369 73.0521 12.3825 70.4603 13.7114C68.411 14.7986 66.5425 15.6443 64.1315 16.7315L63.7699 16.9127C61.1781 18.1208 57.2 19.7517 52.0767 20.1745C50.0877 20.3557 48.4 20.2953 46.7123 19.9329C44.4219 19.5101 42.0712 19.0268 40.5644 17.2752C38.5151 14.9195 38.0329 10.3288 40.5644 7.1275C42.3726 4.8322 45.5069 3.68455 48.0986 4.28858C48.6411 4.40938 49.9671 4.7718 50.6301 5.91945C51.6548 7.61073 50.4493 9.66442 50.4493 9.72482C49.4247 11.4765 47.3753 11.7785 47.1945 11.7785L43.337 12.2013L47.1342 12.8658C49.726 13.349 52.3178 12.2013 53.463 10.0268C54.8493 7.55032 53.7644 4.59059 52.137 2.95972C50.811 1.57046 48.2192 0.241599 43.3973 1.69126C40.6849 2.4765 38.937 4.16777 38.274 4.8322C34.9589 8.51677 34.2959 14.4966 36.7671 18.5436C37.5507 19.8121 38.4548 20.5369 38.937 21.0201C44.3617 25.5503 52.3178 24.1611 55.3315 23.6174C55.9945 23.4966 56.6575 23.3758 57.3206 23.1946C56.1151 23.7986 54.9096 24.3423 53.7041 24.8255C48.8219 26.9396 42.7342 29.5369 34.6575 30.1409C29.474 30.5637 20.7945 31.2282 12.8986 26.0939C10.6082 24.6443 3.67673 20.1141 3.85755 13.7114C3.9781 10.0268 6.38906 7.42951 6.87125 6.94629C9.70412 4.10737 13.2 3.80535 15.0685 3.92616C16.1534 3.92616 17.9617 4.04696 19.348 5.37582C19.5891 5.61743 20.252 6.22146 20.5534 7.1879C21.0356 8.69797 20.4329 10.1476 20.011 10.7517C18.8657 12.4429 15.3096 13.1678 11.4521 11.2953L9.58356 10.4496L10.7288 12.1409C11.3918 13.1678 12.2356 13.953 13.2 14.4966C14.1644 15.0403 16.0932 15.8859 18.3836 15.4027C22.3014 14.557 23.6877 10.6309 23.748 10.4496C23.8685 10.0872 24.7726 7.0671 23.0849 4.16777C20.9151 0.543609 16.3343 0.241596 14.5863 0.181193C14.3452 0.181193 14.1041 0.181193 13.863 0.181193C8.86029 0.181193 5.36438 3.08052 4.64109 3.68455C1.1452 6.76508 0.301368 10.7517 0.120546 12.3221C-0.482194 16.8523 1.44659 20.2953 2.23015 21.8054C3.85755 24.8255 6.69042 27.4228 10.4877 29.6577C20.4932 35.5168 31.2822 34.7315 34.7781 34.4899C45.2055 33.7651 53.0411 29.8993 57.7425 27.604C60.6959 26.1544 63.589 24.5235 66.4219 22.651C66.3617 23.6778 66.3617 24.7047 66.4219 25.6711C66.9041 29.8993 68.5315 32.1342 69.737 33.3423C71.8466 35.3356 75.2822 36.3624 78.7178 36C81.6712 35.698 84.0822 34.4295 85.4082 32.557C86.7343 30.6242 87.337 27.4228 85.8301 25.1879C84.7452 23.557 82.8767 23.0738 82.5753 22.953C82.0329 22.8322 80.2247 22.5302 78.4767 23.6778C78.1151 23.9195 77.0301 24.5839 76.5479 26.0335C76.3068 26.6376 76.2466 27.302 76.3069 27.9664L76.4274 29.1141L77.2712 28.3289C78.9589 26.698 80.8877 25.9731 82.0931 26.5168C82.6959 26.7584 82.9973 27.1812 83.1781 27.4832C83.6603 28.3289 83.3589 29.2953 83.1781 29.5369C82.3945 31.7114 78.5973 32.7986 75.7041 32.3154C74.5589 32.1342 73.7151 31.7114 73.3534 31.5302C71.0027 30.3825 69.8575 28.5705 69.737 26.0335L69.737 25.9127C69.737 24.9463 69.6164 22.4094 71.063 19.8121C72.0877 18.0604 73.4137 17.0335 74.0767 16.4899C81.6712 10.5705 88.3617 7.91274 88.4219 7.85234C92.0384 6.40268 94.8712 5.25502 99.0301 4.7718C101.381 4.53019 105.901 4.34898 110.422 6.28187C112.351 7.12751 113.315 7.91275 113.737 8.99999C114.159 10.1476 114.038 11.5369 113.375 12.3825C112.17 13.953 108.493 14.1342 105.058 11.8389L103.008 10.4497L104.274 12.5638C105.479 14.557 107.468 16.0067 109.699 16.4899C111.627 16.9127 113.496 16.5503 115.003 15.5235C115.786 14.9799 117.173 13.7718 117.595 11.8389C118.137 9.42281 116.751 7.42952 116.329 6.76509C115.244 5.19462 113.858 4.46979 112.411 3.68456L112.532 3.68456Z" fill="#C68944"/>
</g>
<defs>
<clipPath id="clip0_8_5208">
<rect width="242" height="36" fill="white" transform="translate(242 36) rotate(-180)"/>
</clipPath>
</defs>
</svg>
