<svg width="434" height="684" viewBox="0 0 434 684" fill="none" xmlns="http://www.w3.org/2000/svg">
<g clip-path="url(#clip0_8_5158)">
<g style="mix-blend-mode:multiply">
<path d="M1.3923 142.857C2.35248 146.095 4.84895 154.7 13.0585 159.855C16.9472 162.262 21.5081 163.516 26.309 163.481C26.597 163.47 26.8851 163.203 26.9331 162.894C26.9331 162.587 26.7891 162.234 26.501 162.194C25.2528 161.833 23.9565 161.424 22.7563 160.908C20.4039 159.925 14.0667 157.307 9.50582 150.831C6.76931 146.946 3.64873 140.157 4.46488 130.091C4.75293 126.701 5.52108 123.344 6.76931 120.069C7.29741 121.226 7.92153 122.277 8.73768 123.217C9.55383 124.209 11.9063 126.625 15.3149 127.31C20.884 128.422 27.6532 124.624 28.9495 119.659C29.4776 117.59 29.2855 114.731 27.7012 113.001C26.7411 111.964 25.4928 111.399 24.2926 111.446C22.8043 111.504 21.9402 112.255 21.4601 112.837C20.1638 114.424 20.6439 116.401 20.6919 116.604C20.7879 116.908 21.028 117.103 21.316 117.092C21.6041 117.08 21.8441 116.866 21.8921 116.557C21.9402 116.299 22.1322 115.677 22.6603 115.145C22.6603 115.145 23.4284 114.449 24.3406 114.618C25.3968 114.781 26.1169 116.033 26.213 117.104C26.357 118.583 25.3488 119.851 24.9167 120.38C22.8043 122.92 18.2915 124.429 14.4027 122.585C10.0339 120.504 9.21777 115.315 9.07374 114.143C11.3782 110.52 13.7786 106.944 16.2271 103.418C17.7634 101.259 19.0116 99.4695 20.1158 97.9415C23.1884 93.6741 24.9167 91.3025 26.8371 87.0804C29.0935 82.1284 30.3417 77.5232 30.3897 73.733C30.4858 68.8659 29.2375 65.3826 28.6614 64.1254C27.6532 61.7077 26.213 59.563 24.3886 57.6893C25.1568 55.0483 25.7809 52.3617 26.1169 49.6865C26.309 48.2455 26.453 46.8065 26.501 45.3712C27.8453 45.216 29.1895 45.0608 30.5338 44.8032C33.0782 44.2937 35.5747 43.5813 37.9752 42.6679C39.7515 44.5434 41.8639 45.9962 44.1683 46.9807C45.3685 47.4967 48.7292 48.6957 53.242 48.4672C56.7947 48.2764 61.0675 46.7775 65.6283 44.1922C69.5171 41.9917 71.6775 40.0639 75.5662 36.6347C76.9585 35.4026 78.5428 34.0093 80.5592 32.2919C83.7758 29.5547 87.0404 26.8667 90.353 24.2793C91.4092 24.3914 96.3541 25.0674 98.4665 29.643C100.339 33.716 99.0426 38.5791 96.7862 40.9203C96.3061 41.3999 95.2019 42.5695 93.7616 42.4213C92.7534 42.3586 91.5532 41.6378 91.3612 40.5191C91.1691 39.554 91.7933 38.7104 91.7933 38.7104C92.2253 38.0791 92.8495 37.901 93.0895 37.8404C93.3776 37.7779 93.5696 37.5143 93.5696 37.2072C93.5696 36.9 93.3776 36.6516 93.0895 36.5605C92.8975 36.5169 91.0251 36.0785 89.5848 37.5173C89.0567 38.05 88.3846 38.9979 88.3846 40.5849C88.3846 41.9159 88.9127 43.175 89.9689 44.1573C91.6492 45.7807 94.3377 45.8798 96.2581 45.2413C100.867 43.678 104.18 36.3808 102.931 30.4402C102.163 26.7845 99.8588 24.4178 98.8506 23.5871C97.9384 22.7526 96.9302 22.1267 95.826 21.607C98.8026 20.159 101.923 19.2173 105.14 18.7838C114.55 17.5438 121.031 20.6167 124.775 23.3876C131.065 28.0038 133.705 34.6576 134.713 37.1264C135.241 38.3855 135.673 39.7508 136.058 41.0667C136.154 41.3701 136.442 41.5635 136.73 41.501C137.018 41.4385 137.258 41.1219 137.258 40.8148C137.114 35.7523 135.77 30.8906 133.369 26.8382C128.232 18.286 120.071 15.8935 116.998 15.0415C110.181 13.1081 103.075 13.6432 95.826 16.6413C93.8576 17.4865 91.8893 18.5365 90.0649 19.7344C88.5286 19.3852 86.9924 19.1384 85.4561 18.994C82.4795 18.7526 76.1423 18.8992 66.8766 22.7444C64.5722 23.7052 62.1717 24.977 57.4188 27.5698C55.2104 28.7828 53.3861 29.8272 51.6577 30.8166C48.9692 32.3556 46.4247 33.8378 42.7281 35.6724C41.3838 36.3396 39.9915 37.0086 38.6473 37.6245C37.8791 36.7332 36.919 35.3375 36.5349 33.4073C36.5349 33.2025 35.3827 28.1797 38.5513 24.7276C40.0395 23.1333 43.0641 21.1716 45.3685 22.412C46.5688 23.0816 47.1449 24.3388 47.4329 25.3001C47.529 25.6035 47.769 25.7989 48.1051 25.7345C48.3931 25.7231 48.6332 25.4577 48.6812 25.1487V25.0463C48.8252 23.8632 49.0652 21.8572 47.577 20.3287C44.8404 17.5182 39.3674 18.6547 36.2468 21.5418C32.5982 24.9103 32.5982 30.132 32.6942 31.664C32.8382 34.0645 33.7024 36.2318 34.0384 37.0377C34.3265 37.7431 34.7106 38.4447 35.0946 39.0439C33.8464 39.6049 32.5982 40.0635 31.3019 40.4216C29.6216 40.8971 27.8933 41.1186 26.1649 41.1865C26.1649 39.6507 26.0689 38.1187 25.7809 36.6454C25.3008 34.0023 24.3886 29.0724 20.3559 26.2616C19.2997 25.5352 17.0912 24.2909 14.1627 24.406C12.8665 24.4569 10.226 24.5607 8.20958 26.79C6.14519 29.0724 6.1932 32.0398 6.1932 33.422C6.1932 36.4936 7.44144 38.7482 8.16157 39.795C10.9461 43.9346 15.603 44.7243 18.0994 45.1893C19.4917 45.4418 20.932 45.4876 22.3722 45.431C22.3722 47.274 22.1802 49.1245 21.8441 50.9294C21.5561 52.323 21.172 53.6691 20.6919 55.019C20.0678 54.6339 19.4437 54.2489 18.7716 53.9682C18.0034 53.64 15.939 52.7996 13.6826 52.7347C12.2423 52.6889 7.34542 52.8813 4.32085 56.8908C1.72836 60.3202 0.912212 66.1883 3.60072 69.0007C5.04099 70.4799 6.91334 70.2016 8.06555 70.0027L8.16157 69.9989C8.44963 69.9876 8.68967 69.671 8.68967 69.3639C8.68967 69.0567 8.54564 68.7552 8.25759 68.6641C7.34542 68.3928 6.14519 67.7745 5.47307 66.5722C4.22483 64.164 5.95316 60.8709 7.39343 59.2274C10.466 55.7279 15.2669 56.7167 15.4589 56.7604C17.2353 57.1513 18.5795 58.0712 19.4917 58.9056C18.9636 60.3598 18.3875 61.867 17.8114 63.323C16.2271 67.3272 14.9789 70.0894 13.5866 73.011C12.7224 74.8879 11.8103 76.8691 10.7541 79.2654C8.49764 84.4222 7.39343 87.0253 6.57727 89.5146C3.31266 99.472 3.40868 106.277 3.74474 109.438C3.93678 111.068 4.22483 112.746 4.60891 114.318C3.55271 116.305 2.64054 118.44 1.9204 120.567C-0.672085 128.399 -0.91213 136.036 1.15226 143.173L1.3923 142.857ZM22.0842 40.6814C17.3793 41.071 13.3465 39.6424 11.7142 36.9421C10.514 34.9416 10.514 32.8427 10.514 32.8427C10.514 32.8427 10.514 32.7915 10.514 32.7403C10.514 32.5867 10.322 31.0073 11.4262 29.7352C12.2423 28.8329 13.2505 28.6909 13.7786 28.6701C13.9707 28.6626 14.1147 28.6569 14.1627 28.655C14.1627 28.655 14.2107 28.6532 14.2587 28.6513C14.2587 28.6513 16.2271 28.5739 18.1474 29.7783C20.7399 31.417 22.2282 35.6588 22.0362 40.6832L22.0842 40.6814ZM25.3488 66.2009C25.3488 66.2521 25.3968 66.3526 25.4928 66.5024C25.4928 66.5024 25.8289 67.4618 26.0689 68.5787C26.7891 72.5946 26.261 76.5572 26.261 76.5572C25.3968 82.6832 22.0842 88.0862 19.6357 92.0219C18.3875 94.0675 17.0432 95.8609 15.795 97.6505C15.1709 98.5453 14.4988 99.442 13.8746 100.337C13.4906 100.915 13.0105 101.497 12.4824 102.183C11.2822 103.766 9.79388 105.719 8.25759 108.39C8.11356 108.6 8.01754 108.809 7.87352 109.019C7.58546 106.881 7.48945 104.683 7.58546 102.529C7.87352 96.8355 9.40981 92.7821 12.8665 84.097C14.6428 79.6246 16.2271 76.1836 19.1076 69.9784C20.3078 67.3716 21.5561 64.7629 22.7563 62.2073C23.8605 63.3413 24.7247 64.6896 25.3008 66.1516L25.3488 66.2009ZM48.4891 43.8417C47.4329 43.6785 46.5208 43.3048 46.5208 43.3048C46.3767 43.2592 46.2807 43.2118 46.1847 43.1644C44.7924 42.6048 43.4962 41.7342 42.392 40.6002C44.7444 39.1767 47.1449 37.8026 49.5453 36.4284C55.3064 33.1305 58.475 31.3166 62.5558 29.2621C70.5733 25.2612 74.318 23.4759 79.647 22.9594C81.6634 22.7778 83.7277 22.799 85.7441 23.027C85.5521 23.1881 85.36 23.298 85.168 23.4592C82.7196 25.2447 80.9432 26.9015 79.5029 28.1867C78.8788 28.7744 78.3507 29.2559 77.8226 29.7374C77.0065 30.4349 76.1903 31.1837 75.3742 31.8813C73.7419 33.3276 72.1096 34.774 70.2372 36.1786C66.6365 38.8797 61.6916 42.6575 55.9785 43.8035C55.9785 43.8035 52.2338 44.5137 48.4891 43.8929V43.8417Z" fill="#E4B76F"/>
</g>
<g style="mix-blend-mode:multiply">
<path d="M296.792 35.0584C297.08 35.0983 297.416 34.8803 297.464 34.5712C297.848 33.2251 298.28 31.8259 298.808 30.5254C299.816 27.9773 302.505 21.1142 308.746 16.0056C312.491 12.9405 318.972 9.35825 328.382 9.85882C331.55 10.0415 334.671 10.738 337.695 11.9502C336.591 12.5567 335.583 13.2618 334.671 14.1679C333.711 15.0759 331.358 17.6768 330.59 21.3417C329.342 27.3292 332.654 34.4172 337.263 35.6184C339.184 36.106 341.872 35.7956 343.552 34.0402C344.561 32.9768 345.137 31.6231 345.089 30.3452C345.089 28.7582 344.417 27.8631 343.888 27.3719C342.448 26.0463 340.576 26.6318 340.384 26.6905C340.096 26.8042 339.904 27.0678 339.904 27.3749C339.904 27.6821 340.096 27.9305 340.384 27.9704C340.624 28.0121 341.2 28.1943 341.68 28.7385C341.68 28.7385 342.304 29.5331 342.112 30.5133C341.92 31.6471 340.72 32.4622 339.712 32.6042C338.319 32.8124 337.167 31.7827 336.687 31.3408C334.383 29.1788 333.134 24.4157 335.007 20.1955C337.119 15.4539 342.016 14.3912 343.12 14.1943C346.433 16.5214 349.698 18.9528 352.914 21.4373C354.883 22.9981 356.515 24.265 357.907 25.3877C361.796 28.5625 363.956 30.2694 367.845 32.1643C372.406 34.3912 376.679 35.5543 380.231 35.4659C384.792 35.3891 388.105 33.928 389.305 33.2665C391.609 32.1009 393.674 30.484 395.498 28.467C397.947 29.1899 400.443 29.7573 402.94 30.0175C404.284 30.1695 405.628 30.2703 406.972 30.2686C407.068 31.6983 407.164 33.1279 407.356 34.5538C407.74 37.2519 408.317 39.8913 409.085 42.4208C407.26 44.3866 405.82 46.6957 404.812 49.1926C404.284 50.4932 403.036 54.1258 403.084 58.936C403.132 62.7224 404.38 67.2296 406.636 72.0043C408.557 76.0755 410.285 78.3113 413.358 82.3372C414.462 83.7784 415.71 85.4187 417.246 87.5085C419.695 90.8422 422.095 94.2291 424.4 97.6708C424.256 98.8027 423.439 104.108 419.071 106.532C415.182 108.681 410.669 107.476 408.557 105.153C408.125 104.658 407.068 103.522 407.26 102.03C407.356 100.951 408.077 99.6432 409.133 99.3969C410.045 99.1563 410.813 99.7916 410.813 99.7916C411.341 100.232 411.533 100.787 411.581 101.144C411.629 101.449 411.869 101.644 412.157 101.633C412.445 101.622 412.685 101.407 412.781 101.097C412.829 100.89 413.31 98.8745 412.013 97.3896C411.533 96.8453 410.669 96.1626 409.181 96.2211C407.933 96.2701 406.732 96.8804 405.772 98.0444C404.188 99.8984 403.996 102.773 404.524 104.8C405.82 109.663 412.541 112.932 418.158 111.38C421.615 110.425 423.92 107.826 424.736 106.77C425.552 105.765 426.176 104.666 426.704 103.468C427.952 106.592 428.72 109.89 429.008 113.308C429.825 123.31 426.704 130.344 423.968 134.445C419.407 141.33 413.069 144.395 410.717 145.562C409.517 146.172 408.221 146.684 406.972 147.143C406.684 147.256 406.492 147.571 406.54 147.876C406.54 148.183 406.828 148.428 407.164 148.415C411.917 148.075 416.526 146.46 420.415 143.748C428.624 137.947 431.169 129.145 432.081 125.832C434.145 118.482 433.905 110.915 431.313 103.286C430.593 101.216 429.729 99.1508 428.624 97.2489C429.008 95.5956 429.297 93.9461 429.489 92.3004C429.825 89.1132 429.921 82.3519 426.656 72.5999C425.84 70.1747 424.736 67.6584 422.479 62.679C421.423 60.3656 420.511 58.4561 419.647 56.6471C418.302 53.8331 417.006 51.1708 415.422 47.2911C414.846 45.8804 414.27 44.4184 413.742 43.0057C414.606 42.1527 415.95 41.076 417.774 40.5436C417.966 40.5361 422.719 39.1207 425.84 42.3768C427.28 43.9072 429.008 47.0645 427.76 49.5708C427.088 50.877 425.888 51.5385 424.976 51.8815C424.688 51.9952 424.496 52.3099 424.544 52.6152C424.544 52.9224 424.784 53.1689 425.072 53.2088L425.168 53.205C426.272 53.3152 428.144 53.4976 429.633 51.8521C432.369 48.8266 431.505 43.0245 428.912 39.7988C425.888 36.027 420.991 36.2706 419.551 36.3784C417.294 36.6206 415.23 37.6232 414.462 38.0117C413.79 38.3453 413.117 38.7812 412.541 39.2134C412.061 37.9013 411.677 36.5853 411.389 35.2144C411.005 33.4378 410.861 31.6005 410.861 29.7575C412.301 29.7009 413.742 29.5419 415.134 29.1801C417.63 28.5701 422.335 27.4125 425.072 23.0048C425.792 21.9014 426.992 19.5506 427.04 16.4771C427.04 15.0437 427.04 12.1257 425.024 10.0036C423.007 7.93272 420.367 8.03647 419.071 8.0874C416.142 8.20246 413.934 9.62025 412.877 10.4296C408.893 13.5554 407.981 18.557 407.452 21.2398C407.164 22.7357 407.068 24.2753 407.068 25.8111C405.34 25.879 403.612 25.7421 401.931 25.4498C400.635 25.1935 399.387 24.833 398.139 24.3702C398.523 23.6896 398.907 23.009 399.195 22.2809C399.531 21.4486 400.395 19.2134 400.539 16.8016C400.635 15.2621 400.635 10.0404 396.986 6.95855C393.866 4.31673 388.393 3.66148 385.656 6.63582C384.216 8.2282 384.408 10.2172 384.552 11.4402V11.5426C384.552 11.8497 384.84 12.0944 385.128 12.083C385.416 12.0717 385.704 11.9068 385.8 11.5959C386.088 10.6119 386.713 9.30756 387.865 8.54558C390.169 7.12402 393.194 8.84814 394.682 10.3255C397.851 13.5285 396.746 18.64 396.698 18.8467C396.266 20.7578 395.354 22.2271 394.538 23.2318C393.146 22.7234 391.801 22.1619 390.457 21.6004C386.761 20.0562 384.216 18.8252 381.528 17.4462C379.799 16.5926 377.975 15.6405 375.766 14.6522C371.014 12.4328 368.613 11.3497 366.309 10.57C357.091 7.45099 350.706 7.80426 347.729 8.27956C346.193 8.54469 344.609 8.9141 343.12 9.38212C341.296 8.32755 339.328 7.43221 337.359 6.74165C330.11 4.26205 322.957 4.28714 316.187 6.8056C313.115 7.95019 304.953 10.9329 299.816 19.8888C297.416 24.1297 296.072 29.0459 295.927 34.1709C295.927 34.5292 296.168 34.7758 296.456 34.8156L296.792 35.0584ZM387.145 29.9726C387.145 29.9726 386.232 30.3668 385.176 30.6643C381.384 31.5812 377.687 31.1633 377.687 31.1633C371.974 30.4663 367.029 27.1283 363.428 24.6589C361.556 23.4014 359.923 22.0321 358.291 20.7653C357.475 20.1318 356.659 19.4472 355.843 18.8137C355.315 18.4249 354.787 17.9338 354.162 17.4463C352.722 16.2231 350.946 14.7059 348.497 13.1639C348.305 13.0179 348.113 12.923 347.921 12.777C349.938 12.3906 352.002 12.2071 354.018 12.2303C359.347 12.3281 363.092 13.8191 371.11 17.19C375.238 18.922 378.407 20.4868 384.12 23.334C386.521 24.5195 388.921 25.7562 391.273 26.9436C390.169 28.1644 388.873 29.1368 387.433 29.8589C387.385 29.8608 387.289 29.9158 387.145 29.9726ZM415.422 14.1692C417.39 12.812 419.311 12.7365 419.311 12.7365C419.311 12.7365 419.359 12.7347 419.407 12.7328C419.551 12.7271 421.039 12.4639 422.143 13.5979C423.295 14.7301 423.103 16.3246 423.055 16.5313C423.055 16.5313 423.055 16.5825 423.055 16.6337C423.055 16.6337 423.055 18.7326 421.855 20.8275C420.223 23.656 416.19 25.4015 411.485 25.3816C411.293 20.3722 412.781 16.0135 415.374 14.1711L415.422 14.1692ZM419.791 84.4393C419.167 83.5936 418.494 82.7497 417.87 81.9039C416.574 80.2143 415.278 78.5246 414.03 76.5771C411.629 72.832 408.269 67.6911 407.404 61.6331C407.404 61.6331 406.876 57.6608 407.596 53.6394C407.788 52.5056 408.173 51.5179 408.173 51.5179C408.221 51.3624 408.269 51.2581 408.317 51.1538C408.893 49.6466 409.757 48.2304 410.861 47.0096C412.109 49.469 413.31 52.0327 414.558 54.5433C417.438 60.5733 419.023 63.8386 420.799 68.1715C424.256 76.5849 425.792 80.5176 426.08 86.1887C426.176 88.3351 426.08 90.5402 425.792 92.7016C425.648 92.5025 425.552 92.3015 425.408 92.1024C423.823 89.5538 422.335 87.7181 421.183 86.2276C420.655 85.5828 420.223 85.0366 419.839 84.4886L419.791 84.4393Z" fill="#E4B76F"/>
</g>
<g style="mix-blend-mode:multiply">
<path d="M136.826 649.877C136.49 649.839 136.202 650.055 136.154 650.364C135.77 651.71 135.338 653.109 134.81 654.41C133.801 656.958 131.113 663.821 124.872 668.93C121.127 671.995 114.646 675.526 105.236 675.076C102.067 674.894 98.9468 674.197 95.9223 672.985C97.0265 672.378 98.0347 671.673 98.9468 670.767C99.907 669.859 102.259 667.258 103.028 663.593C104.276 657.606 100.963 650.518 96.3544 649.317C94.434 648.829 91.7455 649.139 90.0652 650.895C89.057 651.958 88.4809 653.312 88.4809 654.592C88.4809 656.179 89.153 657.074 89.6811 657.565C91.1214 658.891 92.9937 658.305 93.1858 658.246C93.4738 658.133 93.6659 657.869 93.6659 657.562C93.6659 657.255 93.4738 657.007 93.1858 656.967C92.9457 656.925 92.3696 656.743 91.8895 656.198C91.8895 656.198 91.2654 655.404 91.4574 654.424C91.6495 653.29 92.8497 652.475 93.8579 652.333C95.2501 652.125 96.4024 653.154 96.8825 653.596C99.1869 655.758 100.435 660.521 98.5628 664.741C96.4504 669.483 91.5535 670.546 90.4492 670.743C87.1366 668.416 83.872 665.984 80.6554 663.5C78.687 661.939 77.0547 660.672 75.6625 659.549C71.7737 656.426 69.6133 654.668 65.7246 652.773C61.1638 650.546 56.891 649.383 53.3383 649.471C48.8254 649.597 45.4648 651.009 44.2646 651.671C41.9602 652.836 39.8958 654.453 38.0714 656.47C35.623 655.747 33.1265 655.18 30.63 654.919C29.2858 654.768 27.9415 654.667 26.5973 654.668C26.5013 653.239 26.4052 651.809 26.2132 650.383C25.8291 647.685 25.253 645.046 24.4849 642.516C26.3092 640.55 27.7495 638.241 28.7577 635.744C29.2858 634.444 30.534 630.811 30.486 626.001C30.438 622.215 29.1898 617.707 26.9333 612.933C25.013 608.862 23.2846 606.626 20.2121 602.6C19.1079 601.159 17.8596 599.518 16.3233 597.428C13.8749 594.095 11.4744 590.708 9.17 587.266C9.31403 586.134 10.1302 580.829 14.499 578.405C18.3877 576.256 22.9006 577.461 25.013 579.784C25.4451 580.279 26.5013 581.415 26.3092 582.958C26.2132 584.037 25.4931 585.345 24.4369 585.591C23.5247 585.832 22.7565 585.197 22.7565 585.197C22.1804 584.758 22.0364 584.099 21.9884 583.844C21.9404 583.539 21.7004 583.344 21.4123 583.355C21.1242 583.367 20.8842 583.581 20.7882 583.892C20.7402 584.098 20.2601 586.114 21.5563 587.599C22.0364 588.143 22.9006 588.826 24.3889 588.767C25.6371 588.718 26.8373 588.108 27.7975 586.944C29.3818 585.09 29.5738 582.215 29.0457 580.188C27.7495 575.325 21.0282 572.057 15.4112 573.557C12.0025 574.51 9.65009 577.111 8.83394 578.167C8.01779 579.172 7.39367 580.271 6.86557 581.469C5.61734 578.345 4.84919 575.047 4.56114 571.629C3.74498 561.627 6.86557 554.593 9.60208 550.492C14.1629 543.607 20.5001 540.542 22.8526 539.375C24.0528 538.765 25.349 538.253 26.5973 537.794C26.8853 537.681 27.0774 537.366 27.0294 537.061C27.0294 536.753 26.6933 536.511 26.4052 536.522C21.6523 536.862 17.0435 538.477 13.1547 541.189C4.94521 546.99 2.40073 555.792 1.48856 559.105C-0.575826 566.455 -0.335782 574.022 2.2567 581.651C2.97684 583.721 3.841 585.786 4.94521 587.688C4.56114 589.341 4.27308 590.991 4.08105 592.637C3.74498 595.824 3.64897 602.585 6.91358 612.337C7.72973 614.762 8.83394 617.279 11.0904 622.258C12.1466 624.571 13.0587 626.481 13.9229 628.29C15.2671 631.104 16.5634 633.766 18.1477 637.646C18.7238 639.057 19.2999 640.519 19.828 641.931C18.9638 642.784 17.6196 643.861 15.7952 644.342C15.6032 644.401 10.8503 645.765 7.72973 642.509C6.28946 640.979 4.56114 637.821 5.80937 635.315C6.4815 634.009 7.68172 633.347 8.59389 633.004C8.88195 632.891 9.07398 632.576 9.02597 632.271C9.02597 631.963 8.78593 631.717 8.49788 631.677L8.40186 631.681C7.29765 631.571 5.4253 631.388 3.93702 633.034C1.20051 636.059 2.06467 641.861 4.65716 645.087C7.68172 648.859 12.5786 648.666 14.0189 648.507C16.2753 648.265 18.3397 647.263 19.1079 646.874C19.78 646.541 20.4521 646.105 21.0282 645.672C21.5083 646.985 21.8924 648.3 22.1804 649.671C22.5645 651.448 22.7085 653.285 22.7085 655.128C21.2683 655.185 19.828 655.344 18.4357 655.706C15.9393 656.316 11.2344 657.473 8.49788 661.881C7.77774 662.984 6.57752 665.335 6.52951 668.409C6.52951 669.842 6.52951 672.76 8.54588 674.882C10.5623 676.953 13.2028 676.849 14.499 676.798C17.4275 676.683 19.636 675.266 20.7402 674.454C24.7249 671.329 25.6371 666.327 26.1652 663.644C26.4532 662.148 26.5973 660.607 26.5493 659.073C28.2776 659.005 30.0059 659.142 31.6862 659.434C32.9825 659.69 34.2307 660.051 35.4789 660.514C35.0949 661.194 34.7108 661.875 34.4227 662.603C34.0867 663.435 33.2225 665.671 33.0785 668.082C32.9825 669.622 32.9825 674.844 36.6312 677.925C39.7517 680.567 45.2248 681.222 47.9613 678.248C49.4015 676.656 49.2095 674.667 49.0655 673.444V673.341C49.0655 673.034 48.7774 672.79 48.4894 672.801C48.2013 672.812 47.9133 672.977 47.8173 673.288C47.5292 674.272 46.9051 675.576 45.7529 676.338C43.4484 677.76 40.4239 676.036 38.9356 674.558C35.767 671.355 36.8712 666.244 36.9192 666.037C37.3513 664.126 38.2635 662.657 39.0316 661.654C40.4239 662.162 41.7681 662.724 43.1124 663.285C46.8091 664.83 49.3535 666.061 52.042 667.44C53.7704 668.293 55.5947 669.245 57.8031 670.234C62.556 672.453 64.9565 673.536 67.2609 674.316C76.4786 677.435 82.8638 677.082 85.8404 676.606C87.3767 676.341 88.961 675.972 90.4492 675.504C92.2736 676.558 94.242 677.454 96.2103 678.144C100.243 679.522 104.18 680.135 108.117 679.98C111.285 679.856 114.358 679.223 117.43 678.13C120.503 676.985 128.664 674.002 133.801 665.046C136.202 660.805 137.546 655.889 137.69 650.764C137.69 650.406 137.45 650.159 137.162 650.119L136.826 649.877ZM46.473 654.962C46.473 654.962 47.3852 654.568 48.4414 654.271C52.2341 653.354 55.9308 653.772 55.9308 653.772C61.6438 654.469 66.5888 657.807 70.1894 660.276C72.0618 661.534 73.6941 662.903 75.3264 664.17C76.1426 664.803 76.9587 665.488 77.7749 666.121C78.303 666.51 78.8311 667.001 79.4552 667.489C80.8955 668.712 82.6718 670.229 85.1202 671.771C85.3123 671.917 85.5043 672.012 85.6964 672.158C83.68 672.544 81.6156 672.728 79.5992 672.705C74.2702 672.607 70.5255 671.116 62.508 667.745C58.3792 666.013 55.2106 664.448 49.4976 661.601C47.0971 660.416 44.6967 659.179 42.3442 657.992C43.4484 656.771 44.7447 655.798 46.1849 655.076C46.233 655.074 46.377 654.966 46.473 654.911V654.962ZM11.7145 664.11C13.2508 661.438 16.8995 659.708 21.2683 659.536C21.5563 659.525 21.8444 659.514 22.0844 659.504C22.2765 664.514 20.7882 668.872 18.1957 670.715C16.2753 672.07 14.307 672.147 14.307 672.147C14.307 672.147 14.259 672.149 14.2109 672.151C14.0669 672.157 12.5786 672.42 11.4744 671.286C10.3222 670.154 10.5143 668.559 10.5623 668.353C10.5623 668.353 10.5623 668.301 10.5623 668.25C10.5623 668.25 10.5623 666.203 11.7625 664.056L11.7145 664.11ZM13.8269 600.445C14.451 601.29 15.1231 602.134 15.7472 602.98C17.0435 604.67 18.3397 606.359 19.588 608.307C21.9884 612.052 25.301 617.195 26.2132 623.251C26.2132 623.251 26.7413 627.223 26.0212 631.245C25.8291 632.378 25.4451 633.366 25.4451 633.366C25.397 633.522 25.349 633.626 25.301 633.73C24.7249 635.237 23.8608 636.654 22.7565 637.874C21.5083 635.415 20.3081 632.851 19.1079 630.39C16.2273 624.36 14.643 621.043 12.8667 616.762C9.41005 608.348 7.87376 604.416 7.5857 598.744C7.48969 596.598 7.5857 594.393 7.87376 592.232C8.01779 592.431 8.1138 592.632 8.25783 592.831C9.84213 595.379 11.3304 597.215 12.4826 598.706C13.0107 599.35 13.4428 599.948 13.8749 600.443L13.8269 600.445Z" fill="#E4B76F"/>
</g>
<g style="mix-blend-mode:multiply">
<path d="M432.273 542.077C431.313 538.838 428.816 530.233 420.607 525.078C416.718 522.671 412.157 521.417 407.356 521.452C407.02 521.465 406.78 521.731 406.732 522.04C406.732 522.347 406.876 522.7 407.164 522.739C408.413 523.1 409.709 523.51 410.909 524.026C413.261 525.008 419.599 527.626 424.16 534.102C426.896 537.988 430.017 544.776 429.2 554.842C428.912 558.232 428.144 561.59 426.896 564.864C426.368 563.707 425.744 562.657 424.928 561.716C424.112 560.724 421.759 558.308 418.35 557.623C412.781 556.511 406.012 560.309 404.716 565.326C404.188 567.394 404.38 570.254 405.964 571.983C406.924 573.021 408.173 573.586 409.373 573.539C410.861 573.48 411.725 572.73 412.205 572.148C413.502 570.561 413.021 568.583 412.973 568.38C412.877 568.077 412.637 567.882 412.349 567.893C412.061 567.904 411.821 568.118 411.773 568.427C411.725 568.736 411.533 569.358 411.005 569.84C411.005 569.84 410.237 570.536 409.325 570.367C408.269 570.203 407.548 568.952 407.452 567.881C407.308 566.402 408.317 565.133 408.749 564.604C410.861 562.064 415.374 560.556 419.263 562.4C423.631 564.48 424.448 569.67 424.592 570.842C422.287 574.465 419.887 578.04 417.438 581.566C415.902 583.726 414.654 585.515 413.55 587.043C410.477 591.311 408.749 593.682 406.828 597.904C404.572 602.856 403.324 607.461 403.276 611.252C403.18 616.119 404.428 619.602 405.004 620.859C406.012 623.277 407.452 625.422 409.277 627.295C408.509 629.936 407.884 632.623 407.548 635.298C407.356 636.739 407.212 638.178 407.164 639.613C405.82 639.769 404.476 639.924 403.132 640.181C400.587 640.691 398.091 641.403 395.69 642.317C393.914 640.441 391.801 638.988 389.497 638.004C388.297 637.488 384.936 636.289 380.423 636.517C376.871 636.708 372.598 638.207 368.037 640.792C364.148 642.993 361.988 644.921 358.099 648.35C356.707 649.582 355.123 650.975 353.106 652.693C349.89 655.43 346.625 658.118 343.312 660.705C342.256 660.593 337.311 659.917 335.199 655.342C333.327 651.269 334.623 646.405 336.879 644.064C337.359 643.585 338.511 642.413 339.904 642.563C340.912 642.626 342.112 643.347 342.304 644.466C342.496 645.431 341.872 646.274 341.872 646.274C341.44 646.906 340.816 647.084 340.576 647.144C340.288 647.207 340.096 647.47 340.096 647.777C340.096 648.085 340.288 648.333 340.576 648.424C340.768 648.468 342.64 648.906 344.081 647.467C344.609 646.935 345.281 645.987 345.281 644.4C345.281 643.069 344.753 641.81 343.696 640.827C342.016 639.204 339.328 639.105 337.407 639.743C332.798 641.307 329.486 648.604 330.734 654.544C331.502 658.149 333.807 660.567 334.815 661.398C335.727 662.232 336.735 662.858 337.839 663.378C334.863 664.826 331.742 665.767 328.526 666.201C319.116 667.441 312.635 664.368 308.89 661.597C302.601 656.981 299.96 650.327 298.952 647.858C298.424 646.599 297.992 645.234 297.608 643.918C297.512 643.615 297.224 643.421 296.936 643.484C296.648 643.546 296.408 643.863 296.408 644.17C296.552 649.232 297.896 654.094 300.296 658.146C305.433 666.699 313.595 669.091 316.667 669.943C319.692 670.797 322.813 671.186 325.933 671.064C329.822 670.911 333.807 669.986 337.839 668.292C339.808 667.447 341.776 666.397 343.6 665.199C345.137 665.548 346.673 665.795 348.209 665.939C351.186 666.181 357.523 666.034 366.789 662.189C369.093 661.228 371.494 659.956 376.247 657.364C378.455 656.151 380.279 655.106 382.008 654.117C384.696 652.578 387.241 651.096 390.937 649.261C392.282 648.594 393.674 647.925 395.018 647.309C395.786 648.2 396.746 649.596 397.13 651.526C397.13 651.731 398.283 656.754 395.114 660.206C393.626 661.8 390.601 663.762 388.297 662.521C387.097 661.852 386.52 660.595 386.232 659.633C386.136 659.33 385.896 659.186 385.56 659.199C385.272 659.21 385.032 659.476 384.984 659.785V659.887C384.84 661.07 384.6 663.076 386.088 664.605C388.825 667.415 394.298 666.279 397.419 663.392C401.067 660.023 401.067 654.801 400.971 653.269C400.827 650.869 399.963 648.702 399.627 647.896C399.339 647.19 398.955 646.489 398.571 645.89C399.819 645.329 401.067 644.87 402.363 644.512C404.044 644.036 405.772 643.815 407.5 643.747C407.5 645.283 407.596 646.815 407.884 648.288C408.365 650.931 409.277 655.861 413.309 658.672C414.366 659.398 416.574 660.642 419.503 660.527C420.799 660.476 423.439 660.373 425.456 658.143C427.52 655.861 427.472 652.945 427.472 651.511C427.472 648.44 426.224 646.185 425.504 645.138C422.719 640.999 418.062 640.209 415.566 639.744C414.174 639.492 412.733 639.446 411.293 639.502C411.293 637.659 411.485 635.809 411.821 634.004C412.109 632.61 412.493 631.264 412.973 629.914C413.598 630.299 414.222 630.685 414.894 630.965C415.662 631.293 417.726 632.134 419.983 632.199C421.423 632.245 426.32 632.052 429.345 628.043C431.937 624.613 432.753 618.745 430.017 615.935C428.576 614.455 426.656 614.736 425.552 614.933L425.456 614.936C425.168 614.948 424.928 615.264 424.928 615.571C424.928 615.879 425.072 616.18 425.36 616.271C426.272 616.542 427.472 617.161 428.144 618.363C429.393 620.771 427.664 624.064 426.224 625.708C423.103 629.209 418.35 628.219 418.158 628.175C416.382 627.784 415.038 626.864 414.126 626.081C414.654 624.627 415.23 623.12 415.806 621.663C417.39 617.659 418.638 614.897 420.031 611.976C420.895 610.099 421.855 608.116 422.863 605.721C425.12 600.564 426.224 597.961 427.04 595.472C430.305 585.515 430.209 578.71 429.873 575.549C429.681 573.918 429.393 572.24 429.008 570.668C430.065 568.681 430.977 566.547 431.697 564.419C434.289 556.587 434.529 548.95 432.465 541.813L432.273 542.077ZM411.581 644.252C416.286 643.862 420.319 645.291 421.951 647.991C423.151 649.992 423.151 652.091 423.151 652.091C423.151 652.091 423.151 652.142 423.151 652.193C423.151 652.347 423.343 653.926 422.239 655.198C421.135 656.419 419.647 656.273 419.503 656.278C419.503 656.278 419.455 656.28 419.407 656.282C419.407 656.282 417.486 656.358 415.518 655.155C412.925 653.516 411.437 649.275 411.629 644.25L411.581 644.252ZM408.317 618.733C408.317 618.681 408.221 618.532 408.173 618.431C408.173 618.431 407.836 617.472 407.596 616.355C406.876 612.339 407.404 608.376 407.404 608.376C408.269 602.25 411.581 596.847 414.03 592.912C415.278 590.866 416.622 589.073 417.87 587.283C418.494 586.388 419.167 585.491 419.791 584.597C420.175 584.018 420.655 583.436 421.183 582.75C422.383 581.167 423.871 579.215 425.408 576.543C425.552 576.333 425.648 576.124 425.792 575.914C426.08 578.053 426.176 580.25 426.08 582.404C425.792 588.098 424.256 592.151 420.799 600.836C419.023 605.309 417.438 608.75 414.558 614.955C413.358 617.562 412.109 620.171 410.909 622.726C409.805 621.592 408.941 620.244 408.365 618.782L408.317 618.733ZM387.529 641.716C388.921 642.276 390.217 643.146 391.321 644.28C388.969 645.704 386.568 647.078 384.168 648.452C378.407 651.75 375.238 653.564 371.158 655.618C363.14 659.619 359.395 661.404 354.066 661.921C352.05 662.103 349.986 662.081 347.969 661.853C348.161 661.692 348.353 661.582 348.545 661.421C350.994 659.636 352.77 657.979 354.21 656.642C354.835 656.055 355.363 655.573 355.891 655.143C356.707 654.445 357.523 653.697 358.339 652.999C359.972 651.553 361.604 650.106 363.476 648.702C367.077 646.001 372.022 642.223 377.735 641.077C377.735 641.077 381.432 640.369 385.224 640.987C386.28 641.151 387.193 641.524 387.193 641.524C387.337 641.57 387.433 641.617 387.529 641.665V641.716Z" fill="#E4B76F"/>
</g>
<g style="mix-blend-mode:multiply">
<path d="M394.97 628.676C395.306 628.663 395.594 628.345 395.594 627.986V526.419L405.244 515.75L407.452 513.309C407.452 513.309 407.644 512.994 407.644 512.84V157.048C407.644 157.048 407.596 156.691 407.452 156.595L405.244 154.326L395.594 144.416V42.8997C395.594 42.5413 395.306 42.2455 394.97 42.2587L299.768 45.9992L290.07 36.0392L287.862 33.7711C287.862 33.7711 287.574 33.5776 287.43 33.5833L146.043 39.1384C146.043 39.1384 145.707 39.2028 145.611 39.3601L143.403 41.8018L133.705 52.5238L38.6952 56.2568C38.3592 56.27 38.0711 56.5884 38.0711 56.9468V158.309L28.2773 169.137L26.0689 171.579C26.0689 171.579 25.8768 171.894 25.8768 172.047V527.84C25.8768 527.84 25.9248 528.196 26.0689 528.293L28.2773 530.561L38.0711 540.62V642.034C38.0711 642.392 38.3592 642.688 38.6952 642.675L133.801 638.938L143.547 648.947L145.755 651.215C145.755 651.215 146.043 651.409 146.187 651.403L287.334 645.857C287.334 645.857 287.67 645.793 287.766 645.636L289.974 643.194L299.72 632.419L394.97 628.676ZM41.4798 544.121L47.6249 550.432V631.215C47.6249 631.215 47.6729 631.571 47.8169 631.668C47.913 631.767 48.105 631.861 48.249 631.856L50.6495 631.761L124.007 628.879L130.344 635.388L41.4798 638.879V544.121ZM147.244 42.7771L286.278 37.3144L294.919 46.1897L138.602 52.3314L147.244 42.7771ZM392.186 140.915L385.848 134.406V53.6236C385.848 53.6236 385.8 53.2671 385.656 53.1704C385.56 53.0718 385.368 52.977 385.224 52.9826L382.824 53.0769L309.466 55.9592L303.177 49.5L392.138 46.0047V140.866L392.186 140.915ZM127.8 627.604L125.448 625.188C125.448 625.188 125.159 624.994 125.015 625L51.3216 627.896V549.314C51.3216 549.314 51.2736 548.958 51.1296 548.861L48.7291 546.396L41.5278 538.999V159.658L48.7291 151.696L51.1296 149.042C51.1296 149.042 51.3216 148.727 51.3216 148.574V69.9924L125.015 67.0969C125.015 67.0969 125.351 67.0325 125.448 66.8752L127.8 64.2743L135.145 56.1531L298.328 49.7417L305.673 57.2856L308.026 59.7017C308.026 59.7017 308.314 59.8951 308.458 59.8895L382.152 56.994V135.576C382.152 135.576 382.2 135.932 382.344 136.029L384.744 138.494L392.138 146.087V525.019L384.744 533.193L382.344 535.847C382.344 535.847 382.152 536.162 382.152 536.316V614.897L308.458 617.793C308.458 617.793 308.122 617.857 308.026 618.014L305.673 620.615L298.28 628.79L135.193 635.197L127.8 627.604ZM309.466 621.593L385.224 618.616C385.368 618.61 385.56 618.552 385.656 618.394C385.752 618.288 385.848 618.08 385.848 617.926V537.143L392.186 530.137V625.049L303.177 628.546L309.514 621.539L309.466 621.593ZM124.007 63.2971L48.249 66.2736C48.249 66.2736 47.913 66.338 47.8169 66.4953C47.7209 66.6015 47.6249 66.8101 47.6249 66.9636V147.746L41.4798 154.541V59.8333L130.296 56.3436L124.007 63.2971ZM395.594 149.637L404.188 158.463V511.799L395.594 521.3V149.637ZM38.0711 535.449L29.3335 526.476V173.14L38.0711 163.48V535.449ZM147.34 647.672L138.65 638.747L294.871 632.609L286.182 642.217L147.34 647.672Z" fill="#E4B76F"/>
</g>
<g style="mix-blend-mode:multiply">
<path d="M419.071 169.909L416.958 169.992C416.614 170.006 416.334 170.314 416.334 170.682V498.626C416.334 498.993 416.614 499.28 416.958 499.267L419.071 499.184C419.415 499.17 419.695 498.861 419.695 498.493V170.55C419.695 170.182 419.415 169.895 419.071 169.909Z" fill="#E4B76F"/>
</g>
<g style="mix-blend-mode:multiply">
<path d="M16.4671 185.727L14.3547 185.81C14.01 185.824 13.7306 186.133 13.7306 186.5V514.444C13.7306 514.811 14.01 515.098 14.3547 515.085L16.4671 515.002C16.8118 514.988 17.0912 514.679 17.0912 514.312V186.368C17.0912 186.001 16.8118 185.714 16.4671 185.727Z" fill="#E4B76F"/>
</g>
<g style="mix-blend-mode:multiply">
<path d="M274.756 655.566L159.054 660.112C158.709 660.126 158.43 660.435 158.43 660.802V663.055C158.43 663.422 158.709 663.709 159.054 663.696L274.756 659.15C275.1 659.136 275.38 658.827 275.38 658.46V656.207C275.38 655.84 275.1 655.553 274.756 655.566Z" fill="#E4B76F"/>
</g>
</g>
<defs>
<clipPath id="clip0_8_5158">
<rect width="434" height="665.972" fill="white" transform="matrix(0.999229 -0.0392598 0 1 0 18)"/>
</clipPath>
</defs>
</svg>
