<svg width="169" height="32" viewBox="0 0 169 32" fill="none" xmlns="http://www.w3.org/2000/svg">
<path fill-rule="evenodd" clip-rule="evenodd" d="M29.9402 16.8C29.6298 15.89 29.0194 13.77 28.7193 12.86C28.4089 11.96 28.7193 9.54 27.4984 8.63C26.2775 7.72 24.4461 6.21 23.8357 5.6C23.2252 5 23.4011 4.12 22.0043 3.18C20.6179 2.24 18.0415 1.06 16.8206 0.46C16.2102 0.16 15.6101 0 14.9996 0C14.3892 0 13.7891 0.16 13.1786 0.46C11.9577 1.06 9.38139 2.24 7.99494 3.18C6.59814 4.12 6.77403 5 6.16358 5.6C5.55313 6.21 3.72177 7.72 2.50086 8.63C1.27996 9.54 1.59036 11.96 1.27996 12.86C0.979904 13.77 0.369451 15.89 0.0590513 16.8C-0.241002 17.71 0.669504 18.92 1.27996 20.13C1.89041 21.34 3.41137 24.67 4.02182 25.88C4.63228 27.09 6.46363 26.48 7.99494 27.69C9.5159 28.9 11.6473 30.42 13.1786 31.32C13.9339 31.78 14.4616 32 14.9996 32C15.5377 32 16.0653 31.78 16.8206 31.32C18.3519 30.42 20.4834 28.9 22.0043 27.69C23.5356 26.48 25.367 27.09 25.9774 25.88C26.5879 24.67 28.1089 21.34 28.7193 20.13C29.3298 18.92 30.2403 17.71 29.9402 16.8V16.8Z" fill="white"/>
<path fill-rule="evenodd" clip-rule="evenodd" d="M22.9359 6.97002L26.5987 9.86002C26.7746 10 26.8884 10.21 26.8884 10.44C26.8884 10.67 26.7953 10.89 26.6297 11.04L22.8014 14.43C22.5323 14.66 22.1495 14.69 21.8494 14.49L17.2865 11.4C17.0795 11.26 16.945 11.02 16.945 10.76C16.945 10.51 17.0795 10.28 17.2865 10.14L22.0253 6.94002C22.3047 6.75002 22.6772 6.77002 22.9462 6.97002H22.9359Z" fill="#BF4722"/>
<path fill-rule="evenodd" clip-rule="evenodd" d="M20.7011 15.87C20.7218 16.11 20.6183 16.34 20.4424 16.5L15.5174 20.86C15.3725 20.98 15.1967 21.05 15.0001 21.05C14.8138 21.05 14.6276 20.98 14.4827 20.86L9.55772 16.5C9.38183 16.34 9.28871 16.11 9.29906 15.87C9.31975 15.63 9.44391 15.42 9.6405 15.28L14.5759 11.94C14.8345 11.77 15.176 11.77 15.445 11.94L20.3803 15.28C20.5769 15.41 20.7011 15.63 20.7114 15.87H20.7011Z" fill="#BF4722"/>
<path fill-rule="evenodd" clip-rule="evenodd" d="M8.96796 4.38002L14.6483 1.60002C14.8656 1.50002 15.1139 1.50002 15.3312 1.60002L21.0322 4.39002C21.2805 4.51002 21.4357 4.75002 21.4667 5.02002C21.4874 5.29002 21.3633 5.55002 21.146 5.71002L15.445 9.57002C15.3208 9.66002 15.1656 9.70002 15.0104 9.70002C14.8552 9.70002 14.7104 9.65002 14.5758 9.57002L8.87484 5.73002C8.64721 5.58002 8.51271 5.31002 8.5334 5.04002C8.55409 4.77002 8.71964 4.52002 8.96796 4.40002V4.38002Z" fill="#BF4722"/>
<path fill-rule="evenodd" clip-rule="evenodd" d="M3.42202 9.85003L7.08473 6.94003C7.35375 6.73003 7.72623 6.72003 8.00559 6.91003L12.734 10.11C12.9513 10.25 13.0858 10.5 13.0858 10.76C13.0858 11.02 12.9513 11.26 12.734 11.41L8.17113 14.5C7.88143 14.7 7.48825 14.67 7.21924 14.44L3.39098 11.05C3.21508 10.9 3.12196 10.67 3.13231 10.44C3.13231 10.21 3.24612 10 3.42202 9.86003V9.85003Z" fill="#BF4722"/>
<path fill-rule="evenodd" clip-rule="evenodd" d="M1.83893 17.75C1.5906 17.55 1.48713 17.22 1.58025 16.91L2.5839 13.77C2.66668 13.52 2.86327 13.33 3.1116 13.26C3.35992 13.19 3.63929 13.26 3.82553 13.43L5.55347 14.95C5.73971 15.11 5.83283 15.36 5.81214 15.6C5.79145 15.85 5.64659 16.07 5.42931 16.19L2.69772 17.81C2.41835 17.97 2.0769 17.95 1.81823 17.75H1.83893Z" fill="#BF4722"/>
<path fill-rule="evenodd" clip-rule="evenodd" d="M4.88086 24.8L2.83222 20.27C2.67702 19.91 2.81152 19.49 3.14262 19.29L7.04331 16.98C7.33302 16.81 7.7055 16.84 7.95382 17.07L12.7133 21.27C12.9099 21.45 13.003 21.71 12.9616 21.98C12.9099 22.24 12.734 22.46 12.4857 22.56L5.88448 25.21C5.50166 25.36 5.05675 25.19 4.8912 24.81L4.88086 24.8Z" fill="#BF4722"/>
<path fill-rule="evenodd" clip-rule="evenodd" d="M20.7321 26.74L15.4243 30.38C15.3001 30.47 15.1449 30.52 14.9897 30.52C14.8345 30.52 14.6793 30.47 14.5552 30.38L9.25767 26.74C9.01969 26.58 8.89553 26.3 8.92657 26.02C8.95761 25.74 9.14385 25.5 9.41287 25.39L14.7104 23.27C14.8966 23.2 15.1035 23.2 15.2898 23.27L20.5873 25.39C20.8459 25.5 21.0218 25.74 21.0529 26.02C21.0839 26.3 20.9597 26.58 20.7218 26.74H20.7321Z" fill="#BF4722"/>
<path fill-rule="evenodd" clip-rule="evenodd" d="M27.1778 20.2801L25.1292 24.8101C25.005 25.0901 24.7257 25.2701 24.4153 25.2701C24.3222 25.2701 24.2187 25.2501 24.1256 25.2101L17.5141 22.5601C17.2657 22.4601 17.0898 22.2401 17.0381 21.9801C16.9967 21.7201 17.0898 21.4501 17.2864 21.2701L22.0459 17.0701C22.2942 16.8501 22.6667 16.8101 22.9564 16.9801L26.8571 19.2901C27.1985 19.4901 27.333 19.9201 27.1675 20.2801H27.1778Z" fill="#BF4722"/>
<path fill-rule="evenodd" clip-rule="evenodd" d="M27.2814 17.81L24.5498 16.19C24.3325 16.07 24.1877 15.85 24.167 15.6C24.1463 15.35 24.2394 15.11 24.4256 14.95L26.1536 13.43C26.3502 13.25 26.6192 13.19 26.8675 13.26C27.1158 13.33 27.3228 13.52 27.3952 13.77L28.3988 16.91C28.492 17.22 28.3988 17.55 28.1402 17.75C27.8919 17.95 27.5401 17.97 27.2607 17.81H27.2814Z" fill="#BF4722"/>
<path d="M41.0005 15.3669H42.2899C43.5536 15.3669 44.4863 15.161 45.088 14.7492C45.6898 14.3374 45.9906 13.6902 45.9906 12.8077C45.9906 11.9337 45.6812 11.3117 45.0622 10.9419C44.4519 10.5721 43.502 10.3872 42.2125 10.3872H41.0005V15.3669ZM41.0005 18.5439V25.6163H37.0032V7.18506H42.4962C45.0579 7.18506 46.9534 7.64311 48.1827 8.55922C49.412 9.46691 50.0266 10.8495 50.0266 12.7069C50.0266 13.7911 49.7215 14.7576 49.1111 15.6065C48.5008 16.4469 47.6368 17.1067 46.5193 17.5858C49.3561 21.7292 51.2043 24.406 52.064 25.6163H47.6283L43.1281 18.5439H41.0005Z" fill="white"/>
<path d="M57.8421 13.9927C57.0082 13.9927 56.3549 14.2533 55.882 14.7744C55.4092 15.287 55.1385 16.0182 55.0697 16.9679H60.5885C60.5714 16.0182 60.3178 15.287 59.8278 14.7744C59.3379 14.2533 58.6759 13.9927 57.8421 13.9927ZM58.3964 25.8684C56.0755 25.8684 54.2616 25.2423 52.955 23.99C51.6484 22.7377 50.9951 20.9643 50.9951 18.6699C50.9951 16.3082 51.5968 14.4844 52.8003 13.1985C54.0124 11.9042 55.6843 11.257 57.8162 11.257C59.8536 11.257 61.4396 11.8243 62.5743 12.9589C63.7091 14.0936 64.2764 15.661 64.2764 17.6613V19.5272H54.9794C55.0225 20.6198 55.3534 21.4728 55.9723 22.0863C56.5913 22.6999 57.4595 23.0067 58.577 23.0067C59.4453 23.0067 60.2662 22.9184 61.0398 22.7419C61.8136 22.5654 62.6217 22.2838 63.4641 21.8973V24.8725C62.7764 25.2086 62.0414 25.4565 61.2591 25.6163C60.4768 25.7844 59.5226 25.8684 58.3964 25.8684Z" fill="white"/>
<path d="M70.9827 25.8684C69.2892 25.8684 67.9568 25.2255 66.9853 23.9395C66.0225 22.6537 65.5411 20.8719 65.5411 18.5943C65.5411 16.283 66.0312 14.4844 67.0112 13.1985C67.9997 11.9042 69.358 11.2571 71.0858 11.2571C72.8997 11.2571 74.2837 11.9463 75.2379 13.3246H75.3669C75.1691 12.274 75.0703 11.3369 75.0703 10.5133V6H79.0159V25.6163H75.9986L75.2379 23.7883H75.0703C74.1762 25.1751 72.8136 25.8684 70.9827 25.8684ZM72.3623 22.805C73.3682 22.805 74.1031 22.5193 74.5673 21.9477C75.0402 21.3762 75.2981 20.4055 75.341 19.0356V18.6195C75.341 17.1067 75.1004 16.0225 74.619 15.3669C74.1461 14.7114 73.3725 14.3836 72.2979 14.3836C71.4211 14.3836 70.7377 14.7492 70.2477 15.4804C69.7664 16.2032 69.5256 17.258 69.5256 18.6447C69.5256 20.0315 69.7706 21.0737 70.2606 21.7712C70.7505 22.4604 71.4512 22.805 72.3623 22.805Z" fill="white"/>
<path d="M93.9231 25.6163L92.8142 20.687L91.3184 14.4593H91.2282L88.5977 25.6163H84.3684L80.2679 11.5219H84.1878L85.8512 17.7623C86.1177 18.8801 86.3884 20.4223 86.6635 22.389H86.7409C86.7753 21.7502 86.9257 20.7376 87.1922 19.3507L87.3985 18.2791L89.1779 11.5219H93.5105L95.1998 18.2791C95.2341 18.464 95.2857 18.7372 95.3545 19.0986C95.4318 19.4599 95.5049 19.8466 95.5737 20.2585C95.6425 20.6619 95.7025 21.061 95.7542 21.456C95.8143 21.8427 95.8488 22.1537 95.8574 22.389H95.9347C96.0121 21.7839 96.1496 20.956 96.3473 19.9055C96.5451 18.8465 96.6868 18.1321 96.7729 17.7623L98.5007 11.5219H102.356L98.2041 25.6163H93.9231Z" fill="white"/>
<path d="M106.767 18.5438C106.767 19.9389 106.999 20.9937 107.463 21.7081C107.936 22.4226 108.701 22.7797 109.759 22.7797C110.807 22.7797 111.56 22.4267 112.015 21.7207C112.479 21.0063 112.712 19.9474 112.712 18.5438C112.712 17.1486 112.479 16.1023 112.015 15.4047C111.551 14.7071 110.79 14.3583 109.733 14.3583C108.684 14.3583 107.928 14.7071 107.463 15.4047C106.999 16.0939 106.767 17.1402 106.767 18.5438ZM116.735 18.5438C116.735 20.8382 116.116 22.6327 114.878 23.9269C113.64 25.2212 111.916 25.8684 109.707 25.8684C108.323 25.8684 107.102 25.5742 106.045 24.9859C104.988 24.3891 104.175 23.5361 103.608 22.4267C103.041 21.3173 102.757 20.023 102.757 18.5438C102.757 16.2409 103.372 14.4508 104.601 13.1733C105.83 11.8958 107.558 11.257 109.784 11.257C111.168 11.257 112.389 11.5512 113.446 12.1395C114.504 12.7278 115.316 13.5725 115.884 14.6735C116.451 15.7745 116.735 17.0646 116.735 18.5438Z" fill="white"/>
<path d="M122.061 18.5438C122.061 19.9389 122.293 20.9937 122.757 21.7081C123.23 22.4226 123.995 22.7797 125.052 22.7797C126.101 22.7797 126.853 22.4267 127.309 21.7207C127.773 21.0063 128.005 19.9474 128.005 18.5438C128.005 17.1486 127.773 16.1023 127.309 15.4047C126.845 14.7071 126.084 14.3583 125.026 14.3583C123.978 14.3583 123.221 14.7071 122.757 15.4047C122.293 16.0939 122.061 17.1402 122.061 18.5438ZM132.028 18.5438C132.028 20.8382 131.409 22.6327 130.171 23.9269C128.934 25.2212 127.21 25.8684 125.001 25.8684C123.617 25.8684 122.396 25.5742 121.339 24.9859C120.281 24.3891 119.469 23.5361 118.902 22.4267C118.334 21.3173 118.051 20.023 118.051 18.5438C118.051 16.2409 118.665 14.4508 119.895 13.1733C121.124 11.8958 122.852 11.257 125.078 11.257C126.462 11.257 127.683 11.5512 128.74 12.1395C129.797 12.7278 130.61 13.5725 131.177 14.6735C131.745 15.7745 132.028 17.0646 132.028 18.5438Z" fill="white"/>
<path d="M138.786 25.8684C137.093 25.8684 135.76 25.2255 134.789 23.9395C133.826 22.6537 133.345 20.8719 133.345 18.5943C133.345 16.283 133.835 14.4844 134.815 13.1985C135.803 11.9042 137.162 11.2571 138.889 11.2571C140.703 11.2571 142.087 11.9463 143.041 13.3246H143.17C142.973 12.274 142.874 11.3369 142.874 10.5133V6H146.819V25.6163H143.802L143.041 23.7883H142.874C141.98 25.1751 140.617 25.8684 138.786 25.8684ZM140.166 22.805C141.172 22.805 141.907 22.5193 142.371 21.9477C142.844 21.3762 143.102 20.4055 143.145 19.0356V18.6195C143.145 17.1067 142.904 16.0225 142.422 15.3669C141.95 14.7114 141.176 14.3836 140.102 14.3836C139.225 14.3836 138.541 14.7492 138.051 15.4804C137.57 16.2032 137.329 17.258 137.329 18.6447C137.329 20.0315 137.574 21.0737 138.064 21.7712C138.554 22.4604 139.255 22.805 140.166 22.805Z" fill="white"/>
<path d="M148.214 32C147.311 32 146.524 31.9076 145.854 31.7227V28.47C146.542 28.6381 147.169 28.7222 147.737 28.7222C148.613 28.7222 149.241 28.4533 149.619 27.9154C149.997 27.3859 150.186 26.5539 150.186 25.4193V7.21875H154.184V25.3939C154.184 27.5455 153.681 29.1845 152.675 30.3106C151.669 31.4369 150.182 32 148.214 32Z" fill="white"/>
<path d="M169 20.4979C169 22.162 168.385 23.4731 167.156 24.4311C165.935 25.3893 164.233 25.8684 162.05 25.8684C160.038 25.8684 158.259 25.4985 156.711 24.759V21.1282C157.984 21.6829 159.058 22.0737 159.935 22.3006C160.821 22.5276 161.629 22.641 162.359 22.641C163.236 22.641 163.907 22.4772 164.371 22.1494C164.844 21.8215 165.08 21.3341 165.08 20.6869C165.08 20.3256 164.977 20.0062 164.771 19.7288C164.564 19.4431 164.259 19.1699 163.855 18.9094C163.46 18.6488 162.647 18.2328 161.418 17.6613C160.266 17.1318 159.402 16.6233 158.826 16.1359C158.25 15.6484 157.79 15.0811 157.447 14.4339C157.103 13.7868 156.931 13.0304 156.931 12.1647C156.931 10.5342 157.494 9.25251 158.62 8.31959C159.755 7.38668 161.319 6.92023 163.314 6.92023C164.294 6.92023 165.226 7.03369 166.112 7.26061C167.006 7.48754 167.938 7.80691 168.91 8.21874L167.62 11.257C166.615 10.8536 165.781 10.572 165.119 10.4123C164.465 10.2527 163.821 10.1728 163.185 10.1728C162.428 10.1728 161.848 10.3451 161.444 10.6897C161.04 11.0343 160.838 11.4839 160.838 12.0386C160.838 12.3832 160.919 12.6858 161.083 12.9463C161.246 13.1985 161.504 13.4464 161.856 13.6901C162.217 13.9255 163.064 14.3541 164.397 14.976C166.159 15.7997 167.367 16.6275 168.02 17.4596C168.673 18.2832 169 19.296 169 20.4979Z" fill="white"/>
</svg>
