<svg width="166" height="35" viewBox="0 0 166 35" fill="none" xmlns="http://www.w3.org/2000/svg">
<path fill-rule="evenodd" clip-rule="evenodd" d="M12.3513 3.36885C11.277 3.91184 9.0127 4.96835 7.78632 5.81153C6.55994 6.65472 6.71198 7.44051 6.17519 7.9835C5.63841 8.52649 4.0265 9.88319 2.95293 10.6969C1.87858 11.5114 2.14698 13.6833 1.87858 14.4978C1.61019 15.3115 1.07341 17.2112 0.805013 18.0257C0.535845 18.8402 1.3418 19.9262 1.87858 21.0122C2.41614 22.0974 3.75811 25.083 4.29567 26.1683C4.83245 27.2542 6.44436 26.7112 7.78632 27.7972C9.12828 28.8832 11.0086 30.2407 12.3513 31.0544C13.6933 31.8689 14.2308 31.8689 15.5736 31.0544C16.9155 30.2399 18.7958 28.8824 20.1386 27.7965C21.4805 26.7112 23.0925 27.2542 23.6292 26.1683C24.166 25.0823 25.5088 22.0974 26.0463 21.0114C26.5831 19.9254 27.3883 18.8394 27.1199 18.0257C26.8515 17.2112 26.3147 15.3108 26.0463 14.4971C25.7779 13.6826 26.0463 11.5114 24.972 10.6969C23.8976 9.88241 22.6511 8.84608 21.7497 7.98272C20.8483 7.11937 21.2129 6.62524 20.1386 5.81076C19.0642 4.99705 16.6479 3.91184 15.5736 3.36885C14.4992 2.82586 13.4249 2.82586 12.3513 3.36885Z" fill="white"/>
<path fill-rule="evenodd" clip-rule="evenodd" d="M8.5592 8.07815L13.585 11.5261C13.698 11.6021 13.8305 11.6438 13.9666 11.6464C14.103 11.6451 14.2358 11.6033 14.3483 11.5261L19.3779 8.06651C19.4744 7.99696 19.5513 7.90367 19.6012 7.79568C19.6511 7.68769 19.6723 7.56865 19.6627 7.45008C19.6531 7.3315 19.613 7.21742 19.5464 7.11885C19.4798 7.02029 19.3889 6.94058 19.2825 6.88745L14.2567 4.38659C14.1628 4.34067 14.0596 4.3168 13.955 4.3168C13.8504 4.3168 13.7472 4.34067 13.6532 4.38659L8.6422 6.88745C8.53374 6.9407 8.44116 7.02149 8.3737 7.12173C8.30625 7.22198 8.26628 7.33817 8.2578 7.4587C8.24932 7.57923 8.27262 7.69987 8.32538 7.80858C8.37813 7.91728 8.45849 8.01023 8.55842 8.07815H8.5592ZM15.6739 12.6082C15.6739 12.7206 15.7009 12.8313 15.7527 12.931C15.8046 13.0306 15.8797 13.1163 15.9718 13.1807L20.0008 15.9484C20.1258 16.0352 20.2765 16.0771 20.4284 16.0672C20.5802 16.0573 20.7243 15.9963 20.837 15.8941L24.2167 12.8557C24.2914 12.7885 24.3505 12.7059 24.39 12.6136C24.4295 12.5212 24.4484 12.4214 24.4455 12.321C24.4425 12.2206 24.4178 12.1221 24.3729 12.0323C24.328 11.9424 24.2642 11.8634 24.1857 11.8007L20.9588 9.20679C20.845 9.11574 20.705 9.06359 20.5594 9.058C20.4137 9.05242 20.2702 9.09369 20.1497 9.17577L15.9718 12.0482C15.8813 12.1115 15.8072 12.1953 15.7554 12.2928C15.7036 12.3903 15.6757 12.4979 15.6739 12.6082ZM5.65265 16.3735C5.81555 16.5209 5.89932 16.7381 5.8776 16.9576C5.86748 17.0661 5.83131 17.1706 5.77216 17.2622C5.71301 17.3537 5.63262 17.4297 5.53784 17.4835L3.1324 18.9333C2.88805 19.0791 2.5801 19.0582 2.35825 18.8798C2.1364 18.7014 2.04564 18.4027 2.13174 18.1289L3.02147 15.3147C3.0553 15.2054 3.11598 15.1065 3.19797 15.0268C3.27996 14.9471 3.38064 14.8893 3.49077 14.8586C3.6005 14.8264 3.71671 14.8234 3.82797 14.8497C3.93922 14.8761 4.04169 14.931 4.12529 15.009L5.65265 16.3735ZM18.7023 16.6683L14.3521 13.6756C14.2395 13.5993 14.1066 13.5585 13.9705 13.5585C13.8344 13.5585 13.7015 13.5993 13.5888 13.6756L9.23871 16.6675C9.15303 16.7274 9.08181 16.8058 9.03028 16.8967C8.97874 16.9877 8.94819 17.0891 8.94085 17.1934C8.9351 17.2986 8.95264 17.4037 8.99219 17.5013C9.03174 17.5989 9.09235 17.6866 9.16968 17.7581L13.5159 21.6661C13.6406 21.7786 13.8026 21.8408 13.9705 21.8408C14.1384 21.8408 14.3004 21.7786 14.4251 21.6661L18.7705 17.7573C18.848 17.6863 18.9084 17.5987 18.9474 17.501C18.9863 17.4034 19.0028 17.2983 18.9955 17.1934C18.9898 17.0892 18.9605 16.9877 18.9097 16.8965C18.8589 16.8054 18.7879 16.7271 18.7023 16.6675V16.6683ZM7.10011 15.8941L3.72348 12.8557C3.64821 12.7868 3.58872 12.7025 3.54909 12.6085C3.50946 12.5146 3.49062 12.4131 3.49387 12.3111C3.49548 12.2107 3.51925 12.1118 3.5635 12.0215C3.60775 11.9313 3.67138 11.8519 3.74985 11.7891L6.97677 9.17964C7.09144 9.08854 7.23219 9.03641 7.37854 9.03083C7.52489 9.02525 7.6692 9.06651 7.79048 9.14861L11.9645 12.021C12.1585 12.149 12.2748 12.367 12.2748 12.6013C12.2748 12.8355 12.1585 13.0527 11.9645 13.1807L7.93941 15.9484C7.67955 16.1268 7.33514 16.1035 7.10011 15.8941ZM24.4347 20.259L20.9976 18.191C20.8734 18.1157 20.7282 18.0825 20.5836 18.0965C20.4391 18.1105 20.3029 18.1708 20.1955 18.2685L15.9943 22.0369C15.9072 22.1156 15.8414 22.215 15.803 22.3259C15.7646 22.4368 15.7549 22.5556 15.7747 22.6713C15.7945 22.787 15.8432 22.8958 15.9163 22.9877C15.9894 23.0795 16.0846 23.1513 16.1929 23.1966L22.0207 25.5702C22.1852 25.6356 22.3686 25.6346 22.5324 25.5675C22.6962 25.5004 22.8276 25.3723 22.8988 25.2103L24.7062 21.1441C24.7772 20.9889 24.7888 20.813 24.7387 20.6499C24.6887 20.4867 24.5805 20.3476 24.4347 20.259ZM24.9118 15.3147L25.8015 18.1289H25.7937C25.8262 18.2327 25.8339 18.3426 25.8164 18.45C25.7989 18.5573 25.7566 18.659 25.6929 18.7471C25.5933 18.885 25.4457 18.9806 25.2792 19.0151C25.1126 19.0496 24.9392 19.0204 24.7931 18.9333L22.3837 17.4827C22.2909 17.4279 22.2125 17.3516 22.1553 17.2603C22.0981 17.1689 22.0636 17.0651 22.0548 16.9576C22.0435 16.8494 22.058 16.74 22.0971 16.6385C22.1362 16.537 22.1988 16.4462 22.2798 16.3735L23.8079 15.0052C23.9809 14.85 24.2191 14.7934 24.4417 14.8547C24.5519 14.8866 24.6525 14.9453 24.7346 15.0255C24.8166 15.1058 24.8775 15.2051 24.9118 15.3147ZM12.1631 22.6706C12.1835 22.5553 12.1742 22.4366 12.1362 22.3258C12.0982 22.2149 12.0328 22.1155 11.9459 22.0369L7.74549 18.2678C7.63804 18.1701 7.50189 18.1097 7.35734 18.0957C7.21279 18.0818 7.06759 18.1149 6.94342 18.1902L3.50706 20.259C3.36276 20.3481 3.25545 20.4863 3.20486 20.6482C3.15428 20.8101 3.1638 20.9848 3.23169 21.1402L5.0414 25.2072C5.11217 25.3698 5.24365 25.4983 5.40782 25.5654C5.57199 25.6325 5.75586 25.6328 5.92027 25.5663L11.7442 23.1927C11.8526 23.1485 11.948 23.0775 12.0214 22.9863C12.0948 22.8951 12.1439 22.7867 12.1639 22.6714L12.1631 22.6706ZM14.2257 23.8303L18.9001 25.7323C19.0128 25.7813 19.1104 25.8594 19.1828 25.9587C19.2552 26.058 19.2998 26.1748 19.312 26.297C19.3267 26.4208 19.3075 26.5462 19.2563 26.6599C19.2052 26.7736 19.1242 26.8713 19.0219 26.9424L14.3444 30.2089C14.2325 30.2882 14.0991 30.3315 13.962 30.333C13.8252 30.3306 13.6923 30.2874 13.5803 30.2089L8.90594 26.9432C8.80311 26.8724 8.7214 26.775 8.66947 26.6614C8.61755 26.5479 8.59735 26.4224 8.61104 26.2983C8.62472 26.1742 8.67177 26.0561 8.74719 25.9566C8.8226 25.8571 8.92357 25.7798 9.03936 25.7331L13.7137 23.8311C13.878 23.7651 14.0614 23.7644 14.2257 23.8303Z" fill="#BF4722"/>
<mask id="mask0_9_5322" style="mask-type:luminance" maskUnits="userSpaceOnUse" x="34" y="7" width="126" height="25">
<path d="M34.1309 7.73764H159.019V31.7844H34.1309V7.73764Z" fill="white"/>
</mask>
<g mask="url(#mask0_9_5322)">
<path d="M37.9132 16.6807H39.1326C40.3287 16.6807 41.2115 16.4836 41.78 16.0911C42.3494 15.6978 42.6341 15.0796 42.6341 14.2372C42.6341 13.4026 42.3417 12.8091 41.756 12.4562C41.1781 12.1025 40.2798 11.9264 39.0597 11.9264H37.9132V16.6807ZM37.9132 19.7137V26.4654H34.1309V8.86935H39.3281C41.7521 8.86935 43.5455 9.30685 44.7083 10.1811C45.8719 11.0475 46.4529 12.3678 46.4529 14.141C46.4529 15.1758 46.1643 16.0989 45.5864 16.9095C45.0093 17.7116 44.1917 18.3414 43.1352 18.7991C45.8191 22.7552 47.5675 25.3103 48.3805 26.4654H44.1839L39.9253 19.7137H37.9132Z" fill="black"/>
<path d="M53.8475 15.369C53.0586 15.369 52.4404 15.6172 51.9936 16.1152C51.5452 16.6039 51.2892 17.302 51.2241 18.2096H56.4461C56.4298 17.302 56.1901 16.6039 55.7263 16.1152C55.2624 15.6172 54.6364 15.369 53.8475 15.369ZM54.3719 26.7066C52.1766 26.7066 50.46 26.1093 49.2236 24.9132C47.9871 23.7179 47.3696 22.0245 47.3696 19.8339C47.3696 17.579 47.9382 15.8383 49.0769 14.6103C50.2242 13.3747 51.8059 12.7564 53.8227 12.7564C55.7503 12.7564 57.2513 13.2986 58.3249 14.3815C59.3984 15.4652 59.9352 16.9615 59.9352 18.8713V20.6523H51.1388C51.1799 21.6956 51.4925 22.5101 52.0781 23.0957C52.6638 23.6814 53.4853 23.9746 54.5425 23.9746C55.3648 23.9746 56.1405 23.8901 56.8727 23.7217C57.6631 23.5327 58.4318 23.2624 59.1665 22.915V25.7556C58.5157 26.0768 57.8206 26.3134 57.0799 26.4654C56.3406 26.626 55.4377 26.7066 54.3719 26.7066ZM66.2804 26.7066C64.6778 26.7066 63.4181 26.0931 62.4981 24.8651C61.5875 23.6372 61.1321 21.9361 61.1321 19.7618C61.1321 17.5549 61.5952 15.8383 62.5229 14.6111C63.4577 13.3747 64.743 12.7572 66.3782 12.7572C68.094 12.7572 69.4034 13.415 70.3063 14.7306H70.4281C70.2419 13.7276 70.1481 12.8332 70.1481 12.0467V7.73764H73.8808V26.4654H71.0262L70.3063 24.7201H70.1481C69.3026 26.0442 68.0126 26.7066 66.2804 26.7066ZM67.5859 23.7822C68.537 23.7822 69.2328 23.5092 69.6726 22.9631C70.1194 22.4178 70.363 21.4908 70.4041 20.183V19.7858C70.4041 18.3415 70.176 17.3067 69.7207 16.6807C69.2731 16.0547 68.5416 15.7421 67.5247 15.7421C66.6947 15.7421 66.0485 16.0912 65.5854 16.7893C65.1293 17.4797 64.9012 18.4858 64.9012 19.8099C64.9012 21.134 65.134 22.1292 65.597 22.7948C66.0609 23.4526 66.7234 23.7822 67.5859 23.7822ZM87.9853 26.4654L86.9358 21.76L85.5209 15.8142H85.4356L82.9464 26.4654H78.9445L75.0653 13.0093H78.7739L80.3478 18.9675C80.5999 20.0348 80.8559 21.5071 81.1165 23.3843H81.1894C81.222 22.7746 81.3647 21.8081 81.6168 20.484L81.8115 19.4608L83.4956 13.0093H87.5944L89.1931 19.4608L89.3389 20.2435C89.4938 20.9885 89.62 21.7391 89.7175 22.4938C89.7741 22.863 89.8067 23.1601 89.8152 23.3843H89.8881C89.9618 22.8072 90.0914 22.0167 90.2791 21.0138C90.401 20.3293 90.5352 19.6471 90.6817 18.9675L92.3161 13.0101H95.9642L92.0353 26.4662L87.9853 26.4654ZM100.137 19.7137C100.137 21.0456 100.357 22.0524 100.796 22.7343C101.244 23.4169 101.967 23.7582 102.968 23.7582C103.96 23.7582 104.671 23.4208 105.103 22.7467C105.542 22.0641 105.761 21.0533 105.761 19.7137C105.761 18.3818 105.542 17.3827 105.103 16.7164C104.664 16.0508 103.944 15.7181 102.943 15.7181C101.951 15.7181 101.235 16.0508 100.796 16.7164C100.357 17.3749 100.137 18.3733 100.137 19.7137ZM109.568 19.7137C109.568 21.9043 108.983 23.617 107.811 24.8527C106.64 26.0884 105.01 26.7066 102.919 26.7066C101.61 26.7066 100.455 26.4258 99.4541 25.8642C98.4542 25.2941 97.6855 24.4796 97.1487 23.4208C96.6119 22.3612 96.3435 21.1255 96.3435 19.7129C96.3435 17.5154 96.9245 15.8057 98.0881 14.5863C99.2508 13.3669 100.886 12.7572 102.992 12.7572C104.301 12.7572 105.456 13.038 106.457 13.5996C107.458 14.1612 108.226 14.9672 108.762 16.0182C109.299 17.0701 109.568 18.3011 109.568 19.7137ZM114.607 19.7137C114.607 21.0456 114.827 22.0524 115.267 22.7343C115.714 23.4169 116.438 23.7582 117.438 23.7582C118.43 23.7582 119.142 23.4208 119.573 22.7467C120.012 22.0641 120.232 21.0533 120.232 19.7137C120.232 18.3818 120.012 17.3827 119.573 16.7164C119.134 16.0508 118.414 15.7181 117.414 15.7181C116.421 15.7181 115.706 16.0508 115.267 16.7164C114.827 17.3749 114.607 18.3733 114.607 19.7137ZM124.038 19.7137C124.038 21.9043 123.453 23.617 122.281 24.8527C121.11 26.0884 119.48 26.7066 117.389 26.7066C116.08 26.7066 114.925 26.4258 113.925 25.8642C112.924 25.2941 112.155 24.4796 111.619 23.4208C111.082 22.3612 110.813 21.1255 110.813 19.7129C110.813 17.5154 111.395 15.8057 112.558 14.5863C113.722 13.3669 115.356 12.7572 117.463 12.7572C118.772 12.7572 119.927 13.038 120.927 13.5996C121.928 14.1612 122.696 14.9672 123.233 16.0182C123.77 17.0701 124.038 18.3011 124.038 19.7137ZM130.432 26.7066C128.83 26.7066 127.569 26.0931 126.65 24.8651C125.739 23.6372 125.283 21.9361 125.283 19.7618C125.283 17.5549 125.747 15.8383 126.674 14.6111C127.61 13.3747 128.895 12.7572 130.529 12.7572C132.246 12.7572 133.555 13.415 134.458 14.7306H134.58C134.393 13.7276 134.299 12.8332 134.299 12.0467V7.73764H138.033V26.4654H135.177L134.458 24.7201H134.299C133.454 26.0442 132.165 26.7066 130.432 26.7066ZM131.737 23.7822C132.689 23.7822 133.385 23.5092 133.824 22.9631C134.271 22.4178 134.515 21.4908 134.555 20.183V19.7858C134.555 18.3415 134.328 17.3067 133.873 16.6807C133.425 16.0547 132.693 15.7421 131.677 15.7421C130.847 15.7421 130.201 16.0912 129.737 16.7893C129.281 17.4797 129.053 18.4858 129.053 19.8099C129.053 21.134 129.285 22.1292 129.749 22.7948C130.212 23.4526 130.875 23.7822 131.737 23.7822Z" fill="black"/>
<path d="M139.352 31.6408C138.498 31.6408 137.753 31.5532 137.119 31.3771V28.2712C137.769 28.4318 138.363 28.5117 138.9 28.5117C139.729 28.5117 140.324 28.2557 140.681 27.7414C141.04 27.2364 141.218 26.4413 141.218 25.3584V8.86936H145V25.3344C145 27.3884 144.524 28.953 143.573 30.0282C142.621 31.1033 141.214 31.6408 139.352 31.6408ZM159.019 21.5792C159.019 23.1679 158.437 24.4198 157.274 25.3336C156.119 26.2489 154.509 26.7066 152.443 26.7066C150.54 26.7066 148.856 26.3529 147.392 25.647V22.1812C148.596 22.7102 149.613 23.0833 150.442 23.3005C151.28 23.5169 152.044 23.6255 152.736 23.6255C153.565 23.6255 154.199 23.4688 154.639 23.1554C155.086 22.8428 155.31 22.3774 155.31 21.7592C155.31 21.4148 155.212 21.1099 155.017 20.8446C154.821 20.5724 154.533 20.311 154.15 20.0627C153.777 19.8145 153.008 19.4166 151.845 18.8713C150.755 18.3655 149.938 17.8799 149.393 17.4145C148.858 16.9615 148.414 16.4098 148.088 15.7894C147.762 15.1719 147.6 14.4498 147.6 13.6236C147.6 12.0668 148.132 10.8427 149.198 9.95224C150.271 9.06174 151.751 8.61649 153.638 8.61649C154.565 8.61649 155.448 8.72508 156.286 8.9415C157.131 9.1587 158.014 9.46278 158.933 9.85683L157.713 12.7564C156.761 12.3717 155.973 12.1025 155.347 11.9497C154.748 11.7999 154.134 11.7233 153.517 11.7216C152.801 11.7216 152.252 11.8861 151.869 12.215C151.487 12.5439 151.296 12.9736 151.296 13.5026C151.296 13.8323 151.373 14.1209 151.528 14.3699C151.682 14.6103 151.926 14.8469 152.26 15.0796C152.601 15.3046 153.403 15.7134 154.663 16.3076C156.33 17.0933 157.474 17.8838 158.092 18.6781C158.709 19.4647 159.019 20.4312 159.019 21.5792Z" fill="black"/>
</g>
</svg>
