<svg width="279" height="259" viewBox="0 0 279 259" fill="none" xmlns="http://www.w3.org/2000/svg">
<g clip-path="url(#clip0_9_5267)">
<path d="M177.604 17.0821C174.34 21.9025 166.105 24.6885 151.029 26.2464C147.453 26.7046 142.171 26.8696 137.201 27.0162C135.642 27.1628 134.102 27.1628 132.69 27.1628C130.819 27.3095 129.113 25.9165 129.113 23.9003C129.113 22.0308 130.507 20.4912 132.378 20.3263C133.772 20.3263 135.33 20.3263 136.889 20.1797C141.548 20.033 146.83 19.8681 150.259 19.4099C165.793 17.8519 170.782 15.2126 172.175 13.1965C172.487 12.7383 172.799 11.9502 172.487 10.5572C172.175 9.47582 170.928 8.54107 169.846 8.06453C166.747 6.81819 161.923 6.5066 156.641 7.29473C150.424 8.06453 143.895 10.3922 137.843 13.8197C128.526 19.0983 121.209 28.1159 116.385 40.5426C109.545 58.1013 102.704 73.0024 94.7809 91.3309C82.97 119.135 71.9293 124.89 59.0364 124.89C49.5546 124.89 36.1848 117.907 36.0381 102.53C36.0381 95.6931 38.8441 89.0215 43.8142 83.7429C48.6376 78.6109 55.0016 75.5134 61.0721 75.0369C68.3714 74.7253 71.6359 78.1344 73.0481 80.3155C75.2305 83.5779 75.3772 88.0867 73.5066 91.6608C71.801 94.7766 68.8482 96.6278 65.5837 96.6278C63.713 96.7745 62.1725 95.2349 62.1725 93.3654C62.1725 91.3492 63.5663 89.7913 65.437 89.7913C66.2073 89.7913 66.9959 89.3331 67.4544 88.3983C68.2247 87.0054 68.078 85.3008 67.3077 83.8895C66.0606 82.02 63.4196 81.8734 61.4022 81.8734C52.8558 82.3316 42.9156 91.4958 42.9156 102.53C42.9156 107.497 44.7862 111.547 48.5092 114.498C52.0855 117.137 56.2854 118.072 59.073 118.072C67.7845 118.072 77.1012 115.891 88.6003 88.5633C96.5232 70.3814 103.217 55.627 110.04 38.0866C110.186 37.6284 110.498 37.1519 110.663 36.6936C110.81 36.2354 110.975 35.6123 111.434 34.8241C114.075 28.2992 110.663 27.676 108.169 27.841H106.922C106.775 27.841 106.463 27.9876 106.298 27.9876H106.445C86.2345 29.3806 75.3589 30.6269 69.3067 35.7589C66.6658 37.94 65.5837 40.7259 66.354 43.2186C67.1243 45.3997 68.9949 46.7926 71.801 47.1042C73.6716 47.4158 75.0655 48.9737 74.9004 50.8249C74.7537 52.6944 73.1948 53.9408 71.4892 53.9408H71.1774C65.5837 53.3176 61.3839 50.0551 59.825 45.2347C59.0547 42.742 59.2014 40.1027 59.9717 37.4634C60.907 34.8241 62.6126 32.4964 64.9418 30.6269C72.8647 23.7904 85.2991 22.544 109.086 20.8395C109.086 20.8395 117.944 20.3813 124.327 15.0843L124.95 14.4612C125.409 14.003 132.249 8.70602 136.926 6.54326C137.073 6.54326 137.238 6.39663 137.385 6.39663C143.29 3.44574 149.507 1.42961 155.724 0.494857C162.254 -0.439897 168.306 0.0366442 172.506 1.88782C177.164 3.90396 178.723 6.85484 179.181 9.03594C179.952 11.9868 179.328 14.7911 177.622 17.1188L177.604 17.0821Z" fill="white"/>
<path d="M158.017 89.3148C157.705 89.6263 157.558 90.0846 157.247 90.7077C154.441 95.5281 149.947 103.758 142.942 105.004V105.151C142.318 105.151 141.694 105.297 141.071 105.297C138.742 105.297 136.724 104.527 135.165 103.116C133.148 101.723 132.524 101.723 131.442 101.723C130.672 101.723 130.049 101.723 127.866 102.805C127.408 102.951 127.096 103.263 126.619 103.428C124.437 104.509 122.107 105.132 119.943 105.132C118.696 105.132 117.614 104.986 116.367 104.674C110.773 103.116 105.803 97.3793 108.756 85.5757C110.15 80.2971 112.479 75.1652 115.597 71.1329C118.549 67.4122 121.961 64.4613 125.702 62.5918C130.214 60.4107 134.56 60.0991 137.971 61.657C139.677 62.4268 140.466 64.4613 139.677 66.1659C138.907 67.8704 136.871 68.6585 135.165 67.8704C133.607 67.2472 131.277 67.5588 128.801 68.8052C123.978 71.1329 117.926 77.1996 115.432 87.2803C114.661 90.0845 113.561 96.7561 118.073 98.0025C120.567 98.6256 123.355 98.0025 126.161 95.8214C130.195 92.5589 133.625 86.1989 135.184 82.0017C135.184 81.6901 135.33 81.5435 135.33 81.2319C136.578 77.1996 137.66 76.0999 137.66 76.0999C138.595 75.1652 140.154 74.7069 141.548 75.1651C143.107 75.9349 144.042 77.6578 143.565 79.509C143.253 80.2788 142.795 81.5251 142.171 82.7715C141.089 85.5757 139.365 90.0662 138.907 93.8052C138.595 96.133 139.054 97.5259 139.677 98.0025C140.136 98.4607 140.759 98.4607 141.694 98.314C145.417 97.5442 149.306 90.7077 151.176 87.2803C151.488 86.8221 151.8 86.1989 152.112 85.7224C153.047 84.1644 155.064 83.5413 156.77 84.476C158.329 85.5574 158.952 87.5919 158.017 89.2964V89.3148Z" fill="white"/>
<path d="M200.144 89.4614C199.832 89.773 199.685 90.2312 199.373 90.8543C196.567 95.6747 192.074 103.904 185.068 105.297C184.445 105.297 183.821 105.444 183.198 105.444C181.015 105.444 179.163 104.821 177.751 103.574C177.604 103.574 177.439 103.428 177.292 103.263C175.11 101.558 174.193 101.082 173.092 101.247C172.157 101.247 170.91 101.87 167.957 103.263C165.628 104.344 163.445 104.967 161.281 104.967H159.722C156.458 104.509 153.964 102.951 152.423 100.458C150.241 97.196 150.094 92.5406 151.965 86.6388C152.588 84.4577 153.359 82.4416 154.294 80.4254L172.78 35.9971L174.028 33.0463C174.651 31.1768 176.522 29.7838 178.374 29.7838C180.227 29.7838 181.639 31.3417 181.18 33.3578V33.5045C181.18 33.6511 181.033 33.8161 181.033 33.9627L180.722 34.5859L180.098 36.1438L179.163 38.3249L172.322 54.7839C172.175 55.0954 172.175 55.407 172.01 55.7186C169.681 61.1622 174.193 61.3088 175.11 61.1622H175.256C178.833 61.1622 182.409 62.7201 184.573 65.506C186.132 67.3755 188.461 71.5728 186.132 77.9327L185.05 80.737C184.115 82.9181 181.639 88.9665 181.015 93.9335C180.703 96.2612 181.162 97.6542 181.785 98.1308C182.244 98.589 182.867 98.589 183.803 98.4423C187.526 97.6725 191.414 90.836 193.285 87.4086C193.596 86.9504 193.908 86.3272 194.22 85.8507C195.155 84.2927 197.173 83.6696 198.878 84.6043C200.437 85.6857 201.061 87.7018 200.125 89.4247L200.144 89.4614ZM179.31 69.8865C178.374 68.6402 176.815 68.017 175.587 68.017C175.44 68.017 175.275 68.017 175.128 68.1637C168.764 68.9335 161.923 77.3279 158.494 88.6732C156.788 93.8052 157.558 95.968 158.035 96.7561C158.659 97.6909 159.741 98.0024 160.529 98.1491C164.729 98.6073 168.929 94.2634 171.717 90.5428C174.981 86.1989 177.476 80.9203 178.704 78.116L179.786 75.6234C180.41 73.9188 180.722 71.5911 179.328 69.8682L179.31 69.8865Z" fill="white"/>
<path d="M223.454 33.7061V33.8527C223.454 33.9993 223.307 34.1643 223.307 34.3109L219.731 42.852L199.685 90.0662C199.685 90.2129 199.539 90.3778 199.539 90.3778C198.768 92.2473 198.145 94.0985 197.98 95.1982C197.833 96.5912 197.98 97.8375 198.603 98.2957C199.062 98.6073 199.997 98.6073 201.098 98.2957C205.921 96.4262 208.874 91.001 210.891 87.262C211.203 86.6388 211.515 86.1806 211.826 85.5574C212.762 83.9995 214.944 83.3763 216.485 84.3111C218.19 85.2458 218.814 87.4086 217.732 88.9665C217.585 89.4247 217.273 90.0479 216.962 90.6711C214.632 94.8683 210.744 102.016 203.28 104.656C202.033 105.114 200.786 105.279 199.704 105.279C197.686 105.279 195.816 104.656 194.257 103.574C191.928 101.558 190.68 98.1308 191.139 94.2635C191.597 91.3126 193.468 86.9687 195.027 83.5413C195.485 82.2949 195.962 81.3602 196.274 80.737C196.274 80.5904 196.421 80.4254 196.421 80.2788L216.155 33.6878C216.778 31.8183 218.796 30.1137 220.666 30.1137C222.684 30.1137 223.931 31.6716 223.472 33.6878L223.454 33.7061Z" fill="white"/>
<path d="M250.028 87.7568C250.028 88.6916 249.716 89.0032 249.716 89.1498C243.958 101.723 232.458 104.986 225.618 104.986H224.536C217.548 104.362 211.019 99.8536 211.019 91.3126C211.019 79.509 222.995 62.1153 233.082 62.1153C237.594 62.1153 241.317 66.1475 241.317 70.8213C241.317 72.5259 241.005 76.4115 238.217 80.6087C236.035 84.0178 232.77 87.1337 229.047 89.773C227.177 91.1659 225.012 92.4123 223.142 93.1821C223.142 93.1821 218.318 95.8214 221.583 97.5259C222.665 98.1491 224.077 97.9841 225.306 97.9841C229.817 97.9841 238.052 96.4262 243.187 86.3272C243.958 84.9342 244.746 84.1461 246.287 84.1461C247.057 84.1461 247.681 84.2928 247.846 84.4577C249.239 84.9159 250.028 86.1623 250.028 87.7202V87.7568ZM220.813 86.1989C225.783 86.6571 233.247 77.0347 234.329 72.6908V71.6094C234.329 69.7399 233.247 68.0354 229.359 70.2165C226.718 71.921 225.012 75.0369 223.454 77.1996L222.06 79.3807C221.289 80.6271 220.042 82.9548 219.731 84.3477C219.584 85.1175 219.731 85.9057 220.813 86.2172V86.1989Z" fill="white"/>
<path d="M237.521 172.434C220.574 167.303 200.694 169.172 181.419 170.877C167.425 172.27 152.974 173.516 139.769 172.27C132.616 171.5 126.252 169.942 120.493 167.761C120.493 167.761 120.347 167.761 120.182 167.614C120.035 167.614 119.87 167.467 119.723 167.467C118.641 166.844 117.853 165.763 117.853 164.352C117.853 162.482 119.411 160.943 121.264 160.943C121.576 160.943 121.887 161.089 122.199 161.089C122.511 161.089 122.658 161.236 122.823 161.401C139.457 167.926 159.649 166.056 180.795 164.04C200.382 162.335 220.428 160.466 238.621 165.598C238.933 165.598 239.245 165.745 239.703 165.91H239.85C239.996 165.91 239.996 166.056 240.162 166.056C245.755 167.761 239.226 173.039 237.521 172.416V172.434Z" fill="white"/>
<path d="M109.214 195.767C108.132 197.16 107.032 198.571 105.803 199.652V199.799C102.85 202.915 99.751 205.078 96.6332 206.324L94.4507 206.947C94.4507 206.947 90.5627 208.028 86.051 214.242C81.2276 221.225 75.3222 225.111 69.27 225.111C68.188 225.111 66.9408 224.964 65.6937 224.652C64.4466 224.341 63.3645 223.883 62.2825 223.094V223.241C62.2825 223.241 57.7709 219.52 53.8828 224.176C53.785 224.274 53.7361 224.377 53.7361 224.487C44.5661 235.045 33.067 240.946 22.1914 240.946C19.6972 240.946 17.368 240.8 15.0388 240.177C8.96831 238.619 4.78681 234.898 2.45764 229.308C-0.183313 223.718 -0.641811 216.57 0.898743 208.028C2.60436 199.322 6.3457 189.7 11.9394 178.831C18.1566 167.028 26.0795 156.782 34.1674 150.404C44.5845 142.321 54.6898 140.158 63.8597 144.19C65.4186 144.96 67.5827 146.06 69.4534 148.388C71.159 150.715 73.0297 154.454 72.0944 160.503C71.9476 160.649 70.2237 169.209 62.3008 173.864C56.0836 177.438 47.5372 177.438 37.1201 174.176C35.5612 173.406 34.1674 171.225 34.9377 169.52C35.5612 167.816 37.5786 166.404 39.4493 167.193C47.6839 170.143 54.0662 170.143 58.7245 167.651C63.548 164.7 64.7951 159.733 64.9418 159.11C65.5653 154.143 63.2362 151.815 60.907 150.715C46.2901 144.19 28.7388 162.372 18.4684 182.094C8.36309 201.357 4.95187 217.358 8.83993 226.357C10.3988 229.931 13.0398 232.405 16.7628 233.194C22.5215 234.751 28.8855 233.652 35.5612 230.096C41.6317 226.998 47.3721 221.555 51.8838 215.03C51.8838 215.03 58.101 204.619 59.8066 200.276C59.8066 200.276 59.9533 200.129 59.9533 199.964C61.2004 196.866 62.9061 193.751 65.0885 191.111C67.8945 187.391 71.4525 184.44 75.0287 182.717C79.5404 180.536 83.8869 180.224 87.3165 181.635C89.0221 182.57 89.8107 184.586 89.0221 186.291C88.2518 187.995 86.2161 188.784 84.5105 187.995C82.9516 187.226 80.6224 187.537 78.1465 188.765C73.3231 191.093 67.271 197.306 64.7767 207.24C64.0064 210.045 62.906 216.863 67.5827 218.109C70.5355 218.879 73.8 217.651 77.2112 214.388C78.1465 213.307 79.2286 212.061 80.1639 210.668H80.3106C82.0163 207.717 81.246 204.601 80.6224 203.52L80.3106 202.896L79.8522 201.339C79.7054 201.027 79.7054 200.569 79.7054 200.257C79.7054 197.765 81.0993 195.602 83.5935 194.355C87.3165 192.651 89.664 194.502 90.1225 195.125C90.8928 195.895 91.2046 196.83 91.5163 197.929C91.9748 198.864 93.5337 200.569 98.5039 197.306C100.063 195.913 101.915 194.209 103.951 191.551C105.033 189.993 107.215 189.847 108.774 190.928C110.168 192.009 110.48 194.19 109.233 195.748L109.214 195.767Z" fill="white"/>
<path d="M144.647 209.916C144.335 210.375 144.023 210.851 143.712 211.474C141.382 215.818 137.494 222.82 130.195 225.605H130.048C128.801 226.064 127.407 226.375 126.16 226.375C123.978 226.375 121.814 225.606 120.255 224.359C117.926 222.343 116.844 219.227 117.302 215.818C117.761 210.998 120.567 205.719 123.373 200.752L126.325 194.997C126.949 193.439 125.555 190.488 122.437 192.669C119.631 194.539 116.367 197.49 112.956 200.899C107.509 206.654 102.85 213.325 100.063 218.916L98.0452 223.883C97.5867 225.129 96.1745 225.899 94.9457 225.899C94.4872 225.899 94.1754 225.899 93.6986 225.752C91.993 225.129 91.0577 223.259 91.6812 221.408C92.1397 219.704 92.9283 217.999 93.8637 215.965L105.986 186.914C106.61 185.21 108.169 182.405 111.433 182.57C112.992 182.717 113.928 183.652 113.928 184.898C113.928 187.226 116.568 188.307 118.751 186.914C118.849 186.914 118.898 186.865 118.898 186.767H119.044C120.126 185.998 121.227 185.374 122.309 184.898C125.408 183.505 128.068 183.193 130.232 184.128C132.561 185.063 133.643 186.767 134.12 188.014C135.679 192.358 132.726 197.636 129.296 204.015C127.114 208.358 124.473 213.179 124.015 216.588V216.735C124.015 217.504 124.015 218.439 124.638 219.062C125.262 219.52 126.509 219.52 127.903 219.209C132.726 217.339 135.825 211.914 137.696 208.175C138.155 207.552 138.466 206.929 138.778 206.471C139.713 204.766 141.731 204.289 143.436 205.224C144.995 206.159 145.619 208.175 144.684 209.88L144.647 209.916Z" fill="white"/>
<path d="M156.917 180.554L146.353 206.342C145.271 209.147 143.4 213.325 143.088 215.36C142.942 216.753 143.4 217.853 143.712 218.311C144.17 218.769 145.106 218.769 146.041 218.457C151.011 216.588 153.964 211.163 155.981 207.424L156.917 205.719C157.852 204.015 160.016 203.538 161.74 204.473C163.446 205.407 163.923 207.424 162.987 209.128L162.052 210.686C159.723 215.03 155.981 222.178 148.37 224.817C147.288 225.276 145.876 225.441 144.794 225.441C142.923 225.441 140.906 224.817 139.512 223.571C137.018 221.555 135.936 218.292 136.413 214.407C136.871 211.767 138.283 208.047 139.512 204.784L157.54 161.602L161.263 153.208C161.722 151.338 163.446 149.945 165.298 149.945C167.315 149.945 168.709 151.503 168.251 153.52L165.757 159.733C163.427 165.323 158.769 176.357 156.898 180.554H156.917Z" fill="white"/>
<path d="M194.697 208.358C194.697 209.293 194.385 209.605 194.385 209.751C188.626 222.325 177.127 225.587 170.286 225.587H169.204C162.217 224.964 155.688 220.455 155.688 211.914C155.688 200.111 167.663 182.717 177.75 182.717C182.262 182.717 185.985 186.749 185.985 191.423C185.985 193.127 185.673 197.013 182.886 201.21C180.703 204.619 177.439 207.735 173.716 210.375C171.845 211.767 169.681 213.014 167.81 213.784C167.81 213.784 162.987 216.423 166.251 218.127C167.333 218.751 168.746 218.586 169.974 218.586C174.486 218.586 182.721 217.028 187.856 206.929C188.626 205.536 189.415 204.748 190.955 204.748C191.725 204.748 192.349 204.894 192.514 205.059C193.908 205.517 194.697 206.764 194.697 208.322V208.358ZM165.481 206.8C170.451 207.259 177.915 197.636 178.998 193.292V192.211C178.998 190.341 177.916 188.637 174.027 190.818C171.386 192.523 169.681 195.638 168.122 197.801L166.728 199.982C165.958 201.229 164.711 203.556 164.399 204.949C164.252 205.719 164.399 206.507 165.481 206.819V206.8Z" fill="white"/>
<path d="M234.33 209.916C234.018 210.375 233.706 210.851 233.394 211.474C231.065 215.818 227.177 222.82 219.878 225.605H219.731C218.484 226.064 217.09 226.375 215.843 226.375C213.661 226.375 211.496 225.606 209.938 224.359C207.608 222.343 206.526 219.227 206.985 215.818C207.443 210.998 210.249 205.719 213.037 200.752L215.99 194.997C216.613 193.439 215.219 190.488 212.102 192.669C209.296 194.539 206.049 197.49 202.62 200.899C197.173 206.654 192.515 213.325 189.727 218.916L187.709 223.883C187.251 225.129 185.839 225.899 184.592 225.899C184.133 225.899 183.821 225.899 183.345 225.752C181.639 225.129 180.704 223.259 181.327 221.408C181.786 219.704 182.574 217.999 183.51 215.965L195.632 186.914C196.256 185.21 197.815 182.405 201.079 182.57C202.638 182.717 203.574 183.652 203.574 184.898C203.574 187.226 206.214 188.307 208.397 186.914C208.495 186.914 208.544 186.865 208.544 186.767H208.69C209.772 185.998 210.873 185.374 211.955 184.898C215.054 183.505 217.695 183.193 219.878 184.128C222.207 185.063 223.307 186.767 223.766 188.014C225.325 192.358 222.372 197.636 218.942 204.015C216.76 208.358 214.119 213.179 213.661 216.588V216.735C213.661 217.504 213.661 218.439 214.284 219.062C214.908 219.52 216.155 219.52 217.549 219.209C222.372 217.339 225.471 211.914 227.342 208.175C227.801 207.552 228.112 206.929 228.424 206.471C229.359 204.766 231.377 204.289 233.082 205.224C234.641 206.159 235.265 208.175 234.33 209.88V209.916Z" fill="white"/>
<path d="M268.35 173.882C264.774 174.341 260.739 174.817 258.098 174.817H257.951C257.639 174.964 257.493 174.964 257.181 174.964H257.034L256.411 174.817H253.605C253.605 174.817 248.323 174.506 245.828 180.572L235.265 206.361C234.183 209.165 232.312 213.344 232 215.378C231.853 216.771 232.147 217.871 232.624 218.329C233.082 218.787 234.018 218.787 234.953 218.476C239.923 216.606 242.876 211.181 244.893 207.442L245.828 205.737C246.764 204.033 248.946 203.556 250.487 204.491C252.192 205.426 252.816 207.442 251.734 209.147L250.964 210.704C248.634 215.048 244.746 222.196 237.282 224.836C236.035 225.294 234.788 225.459 233.706 225.459C231.688 225.459 229.818 224.836 228.424 223.589C225.93 221.573 224.701 218.311 225.324 214.425C225.636 211.786 227.195 208.065 228.424 204.803L239.611 178.08C240.235 176.21 240.693 173.113 236.658 172.178C233.541 171.555 235.576 165.03 238.988 165.653C239.134 165.653 244.435 166.423 245.828 163.16L246.452 161.602L250.028 153.208C250.487 151.338 252.357 149.945 254.228 149.945C256.246 149.945 257.493 151.503 257.034 153.52L252.523 164.388C252.376 164.847 251.44 167.486 255.163 167.962H258.886C261.216 167.962 264.022 167.816 267.121 167.504H267.745C270.386 167.504 271.321 168.897 271.468 170.143C271.468 171.701 270.386 173.718 268.35 173.864V173.882Z" fill="white"/>
<path d="M277.061 189.865C275.356 191.111 273.338 190.8 272.238 189.407C271.468 188.637 268.203 187.702 264.939 189.407C261.051 191.588 260.427 196.555 262.921 203.226C264.792 208.67 265.25 209.293 267.745 214.095C271.156 220.162 274.42 226.064 275.521 232.112C276.603 239.095 275.062 246.408 269.615 251.999C265.581 256.196 260.299 258.835 254.228 258.982H253.605C248.011 258.982 242.564 256.966 239.153 253.227C234.329 248.26 232.477 240.8 234.183 234.275C235.741 228.685 239.63 224.652 245.058 223.094C249.405 221.848 252.523 222.636 254.228 223.553C256.557 224.799 258.428 226.815 259.363 229.308C261.234 234.586 259.217 240.488 254.705 242.504C252.999 243.128 250.982 242.358 250.193 240.635C249.405 238.912 250.193 236.914 251.899 236.126C253.146 235.668 253.605 233.487 252.834 231.782C252.376 230.078 250.817 228.52 247.076 229.601C243.041 230.682 241.482 233.633 240.858 235.961C239.611 240.158 241.005 245.272 244.123 248.534C246.305 250.862 250.193 252.255 254.063 252.109C258.098 252.109 261.674 250.239 264.48 247.453C268.515 243.421 269.615 238.289 268.68 233.157C267.91 228.19 264.957 222.911 261.839 217.321C259.345 212.812 259.033 212.354 256.869 207.075C256.869 207.075 255.31 202.42 252.834 206.617L250.505 210.961C249.57 212.519 247.699 213.6 245.994 212.831C244.288 212.061 243.187 210.026 244.911 207.075C247.241 202.878 252.999 192.468 257.511 187.189L259.07 185.319L259.693 184.696H260.005C260.464 184.238 260.941 183.762 261.711 183.45C267.305 180.499 274.604 181.122 277.557 185.154C278.804 186.547 278.492 188.729 277.098 189.81L277.061 189.865Z" fill="white"/>
<path d="M136.321 134.769C135.605 139.645 131.864 144.245 125.555 143.329C119.246 142.431 116.972 136.969 117.651 132.093C118.366 127.2 122.07 122.618 128.416 123.516C134.725 124.414 136.999 129.876 136.321 134.769ZM131.736 133.615C131.791 130.132 129.498 128.116 127.041 128.025C124.601 127.915 122.254 129.692 122.217 133.193C122.162 136.731 124.455 138.71 126.876 138.838C129.333 138.93 131.681 137.152 131.717 133.615H131.736Z" fill="#0BDFAC"/>
<path d="M153.34 125.679C153.34 126.687 152.661 128.08 151.341 128.08C150.02 128.08 149.14 128.025 147.838 128.08C147.636 128.08 146.792 128.135 146.352 128.354C145.674 128.629 145.344 129.216 145.344 129.729C145.344 130.627 145.619 130.701 145.857 130.92C146.041 131.104 146.279 131.159 146.517 131.25C147.471 131.599 148.957 131.452 149.965 131.452C152.551 131.452 152.588 135.484 149.965 135.484C149.25 135.484 148.04 135.448 147.343 135.521C147.049 135.521 146.774 135.613 146.481 135.631C145.912 135.668 145.344 135.961 144.94 136.364C144.592 136.749 144.408 137.372 144.28 137.885C144.188 138.27 144.335 138.71 144.317 139.132C144.28 139.553 144.317 139.993 144.317 140.433V141.808C144.317 142.944 143.4 143.86 142.263 143.86C141.125 143.86 140.245 142.962 140.245 141.808V126.595C140.245 125.147 142.244 124.011 143.986 124.011H151.359C152.698 124.011 153.358 124.67 153.358 125.679H153.34Z" fill="#0BDFAC"/>
</g>
<defs>
<clipPath id="clip0_9_5267">
<rect width="278.308" height="259" fill="white"/>
</clipPath>
</defs>
</svg>
